<<<<<<< HEAD
<mxfile host="Electron" modified="2023-10-10T06:42:08.931Z" agent="5.0 (Windows NT 10.0; Win64; x64) AppleWebKit/537.36 (KHTML, like Gecko) draw.io/20.8.10 Chrome/106.0.5249.199 Electron/21.3.5 Safari/537.36" etag="qROTywfDWirOpESVeqiA" version="20.8.10" type="device" pages="2"><diagram id="C5RBs43oDa-KdzZeNtuy" name="Mối Kết Hợp">7V1de5pKF/01XiYP8wXDpTFtkrdN2r5JT9urPlSp0qikar7668+gDMpm1BEYwFNyE0EEnbVmz9p79uzpkN7k5WLmPYyuw4E/7mBr8NIh5x2MCcKW+BedeV2dQS6nqzPDWTCIz61P3AZ//Phk/MHhYzDw56kLF2E4XgQP6ZP9cDr1+4vUOW82C5/Tl/0Mx+mnPnhDP3Pitu+Ns2e/BIPFaHWWY2d9/tIPhiP5ZGS7q3cmnrw4/iXzkTcInzdOkTcd0puF4WL1avLS88dR68l2+XL1+mX8/t6++N+n+W/v89m7u5t/TlY3e3vIR5KfMPOni9y3Jt+v2G347gPyfr3/9HD7Y8Y/9eStn7zxY9xeHWyPxUPOfobiWeJHL17jlrR/P4byjZP5EueuuIDyB0GWs/X74tUw+n/X6ZEOt67ENe8uP3TeoM5Zt9PFN/IB4puunrG6PG7j5HF4Fj5OB3705S3x9vMoWPi3D14/evdZcFWcGy0mY3GEkk/vbSH5c/3Zwn/Z4EfcYhd+OPEXs1dxSfwudmLwY/pjK77F85pLRFJ9tMkjymIOx/wdJvdeYyRexDAdABk2B9nN5RKzCCPrn6vl6+5x4YWQxQBgVBcwyxBgRAEYaLuhaLyHGKjYhBImj+PLrIJtlphY74d8rLW7LS2CU22JGMuyH7uqxnRMNSYtzn62jf2jYGmlzjrcmUQ9ID7qMiNdYBI+xUhERzNffMPN43DhLTaOxbjsbx77g2DzcBz275MHp3FWd7edTN3f3eojACqBAdvs33mM+Jn48tbS/KHjMn9CntG95g9zFWDMGGBc3/6lG3G+mIX3fi8chzNxZuD/9B4TnN96k2Ac/chLf/zkL4K+lzafCMfHio8H43H2bHnoHGxoM6hxhcpQo8aNoeYaVIZvutdHb1IrJaem/U66mr5eSstbebjJO2arrAU5tYkpgWttpd78wZsWol4vsuouvblYKdx4uLd7G3RcPaPRVh4zABuzFW4JZgrgbFMGQ1p1w67kzcXnb8fomAifA4hpl2chU9p4Y1IKq0bmkiDrSYefftTGaRROfjzO68PIdoGzj7PmkFgqiDA+NeXus+0hmsLWEOmaPdGAQCOlh79pOPXB4BWf8sbBcCoO+wIrX5w/i+AQA+K4G78xCQaD6DFK0NNd1xTujAPRTEgGd1sBOzHVMdl2W9piXlKgyKJWw0BXObYAk/nIe4hejoPpfRqbdKv5L8Hiq5S14vW36Pwpi4/OXzYuO3+VB1PxK75uHmx8Kjpcf2x59JoLoXn4OOv7uzTs6rqFNxv6u7SuHLz8QSr+vzNUgaTxnvljbxE8pacIVIjGt/sYBsvxUA4UICpMXUCK1a+MP7XmReZGyAZK7gTqs1U7ZO60ZFjyIwuQzjFnaT593gz6W++X0vtcW2nXrQaQDZwjbDlZOeBQhRwgzJwcUPnloOn86aAbzZytLfJ/0VBgTUMhKX6IoWAKw8/KsR2I8jStYAhH23Ywkr4RHJkMmw5b5abnHa9yUioPfUumoaTXXh7KwHUdAxaidporcJjRJ92eG5kmXesNGVfGFIEp1LqVsd26Q6ZBF5oF+MA0G/uoFnTVtHlpUWBVcKrZchRn5CjKdsvK5ait4bT+HXJU8nW/44obpUcxh3NAKKc2IBbIvRF3OnUA80zrA9aK0g2tuZeMkrV1iFJMSZovMgJ2MPGSnE1pGh1SLeu2T6QUHqumrUBZkcVpmkDZniHRgl7SpKlFMQCd1Qu6o53MWaxJcuQQyegkjElvNBVlKnnISGaULq+9VK5bedJ6N0YHpTHW0DYGYxm1xd6LIhK/Cybn3FOE3Y2/rBWo3PNxypyuS5TmWlx+kwpSQ2mu1eW3TXFZhdKUHbzZ4U8XpsVyQAtdqblOqE3u5KbvZFhqOkYcnDTtrFy0Q82knVsf7TChabIwK6drnbkTsWm1tLPNjVWt2JUYpwc9x67Zw3EMJge0cfcYdDiJa2fTQqsF3WAs4/bj/69u7o4q1zqTt6tam0EcBULI2TFgFINIIwekFieUWjCUrAjSYGUGLQw6l9ZYMr1ipwfa1EUmWQB3E0Kb1idJbrNMPHMU4QKsQsrYkiNucDF6p0c7rpUs+MDX4uLz7s1lJ1pRsFpd8G35+lJewo9+hZJB8oApoxOFUqHKbm5s+QnXCDQVnPjR9IpqnPaRXu1er8ipMXkWc5AAZ8Olp0fjjHONaPDBpEOdPBGgIyBdnRGg8lK2owSpNOncikmnigCVJNAv4tHPxdcVxIrLSowBOfRJlGVTdCoVumUuPMwNBkxa33mFKZwSJjRZhleX98wNhkzaOJnaI3dYtr9XC7pGhYu/ICYvR9T9GXBWjUKAYjvFHiSkARwFtLWATXn6ZhRxeDPTckAjGHTossFD5hPzzl3WRb5aJ4SEA5zmC7Lykw+GjoVdrHYxhqsKrZU02H3cKEW3UbTjWDQpgthghShNTBFIOTE0TLnt2pnKp3NcRRZWpdrENbiMohWkWwwxk2a+NtRNJCelAlPaerS+wJRrH4EeJRaBkoDnlgQEM6BHCalaj7rGV2DoxkRrDMRrU6/eQDx0hSxcwBUCRpC7qGrmGQy5HWVg1AGRaoQoVQTIKo+Num1ekfmVE1CI8rqFaLtGyrgQZTI3KRGiJJusVCnqyDI+Raq/ILNGLZqUpd+rCGpNk+dAENjMzisIxFgDvCJuVztRiiwTXtARLgbW5l6djhByHEA+6uYmH7ZkCcXkZhRVTL52mj41OCEb2gPm8FPcADmKrHau3nx9GZS4gwn+bu3ipJ2tN15Nirh242A36Ioc97yVCypgO4qs8MpX2iLLTM1LKxp9dHMl8uZllKzlsKaSSzjekCpDnEHzz5GTT9u5tg1uxSou95IsVvnLE34SkjXZqeUupIttkXzMQzaxIIsl8pVRr53ENy5ZEPBUal+TiRBuhapp1LEN/VPFSs+KYdcIYNWy0NMGqwdtZKtc+epr6iCkMf1cdnmbNU4NrziEkMFIR+8yqap6XbHzUxiVZP1yitUNrDqEkCpkUVh6bgrPIyg6lPTy/RHtTm3Ck7rpgmyEZTaJ0hWenIDabrjq3Aqks4tnRRllNTo82rzjNc6kcJpmC8u/wIGDCq3cqTqdDO3YiLSVviXtfwaVr6VIVq9W+ZrcA7R1c2OUYekhnN0rumLUDSarH/tuVLCTcsoUuXzVC1Ks4aPmCs47eYLzKUHR1B2pEp43JDiP6HoVWhIjzRmdR2y9F2oSPqs4PI81YgBF836cY0j8wbp7UtS5KBJRlmGMmzNCHyWZQSbL2Gll7GuzScwnFZD0hg+E1S5d2px28zlEoNALV2QnVIs6UYmfklC/u+xGcdSLq+4RiVRQZ5tx1YKT6kUq0VAEBbep+m8pVEnspihU4qYNfrLC9nB9Cst3yVLiVekDotIH5arTI5CmkmANl6aw7LqF89EOIye9MpfBb2Ocdm2uq/mdU3HTImqkXXVnXpY6MLex9opkSQZTAdyJvW2i3xPNHCyiJngQoGBr4L3qUkF89+Bhvg2wKiSqA+KoxM0md6nruVNzaKmS+grI04LbCaV0QUNVgQSjMQI1sy96zvqyggygnCksj2xaKVCDszCdnt3pvpXL1876neVMjN05s+JzXTIdHo+/SymsoEGylp/aKneXG3R3aclzMkW3J6vRz6Da2zI3yp5gmI3K8xZJRwRUvmawBr9xe1Jy8GXNRnxsu+Xp0zFPsXSjU4Rw9S5y8kZgMCAkgfs+GyekRgQmFyEPi+01IQyjzcc8hapM8pGDItAos7WIfkF/WEa84r31EN0emtHd+Gars3YrtZZoncJb3Wh7bxm/feDNR8sOY1SO4UzVVYUjTpQb08DSuSWKMY3M2YJzD7vHsHxp3qVbGkd75NPNjilqQzIVKVDeTUGEOdp3q/KMyHx0/evJmnwYf/f+eB8eF4vz0c1JNt5zF0xED53J5+Xqx5E1uF0amXNqVdaNGWxMothfSt2NUSlelbKFy43RbLQsLuJj5e+mu2hUYietSA+4YFMpZOXeVQrmxa7Tocvvy29+3/fdy/7v4LvnPrvz7uuHr7db+vKdN7/P35NTPRd2a2M9mTuwJyvqYWNX1ZMtWkZPVravsZ5M87qZ6hUx5vr+LtodX993Mh029zjuZMwIjPqX1/dZEHy9njzdvh2O7373P7/59efTs6LvF+HmEbumWLe2RLMCdw4MbuSlIodzyaURURzOwshJXF8uhovRdTjwoyv+BQ==</diagram><diagram id="Gy5e6U_plVm-h1LxpvRB" name="Các Tập Thực Thể">7V1bV9s6E/01WavnISzrYkl+DIECq0B7Gnp7zCEuZDVgTggt/X79Z8eWY49lIl+kKIfy0MaXKIn31mi0NTMakPHd88ly+nB7Ec3CxQB7s+cBORpgjBjx4v+SM7+zM37A0jM3y/ksO7c5MZn/L8xOZm+8eZrPwsfSjasoWqzmD+WT19H9fXi9Kp2bLpfRr/Jt36NF+VMfpjdh5cTkerqonv0yn61u07PC9zbnT8P5za38ZORlV+6m8ubsxOPtdBb9KpwixwMyXkbRKn119zwOF8nTk88lfd/bmqv5F1uG9yudN7wb/fPoTa7Hy4d/D8XbHyfn8y8Pw6yVn9PFU/aDB5gt4vYOv0dxs/G3Xv3OHgX79ymSF4aPa6BG8Q1UPMRoH26ux69ukv+vBmMyEN5ZfM+70/eDYzQ4HA1G+FJ+QPxN089Ib88eUv5xeBk93c/C5Mt78eVft/NVOHmYXidXf8Vki8/dru4W8RHK3118GPKXhctV+Fw4lT2ckzC6C1fL3/Et2dUhYhk1M65i7KfHvzbAE8nL2yLoNLtxmpHtJm98g0f8IoOkATy4MzyE1cDzaXL88XJ0cawLR/xt4z4XbociaWWSvY/2gQuTne133sequFAVLtwULsQcLh9Gk8mX9x+PeselDygoKkMxpCookAoKzxAUVAEFfET3s1EyFMRH99F9WH4sZTMTPs9XXwuvvyWvD/zs6Oi5cOnotzy4j3/H16y59cG34sHmTesj+a5aOB6jp+V1uN1mr6bLm3C13XiEs9IIVwW3gJ2v6EXy3DJcTFfzn+VxUQVn9gkfovm6K0hmgV5MAsCI9Hdn7yqOY6Ah7IGGKGgofTCVhtbsyn92e8L5/RJOkidjWWf6bKUFcYoW8agL4EQteTHEviiPE0JYJQYz50tdnq6dqcR58j6frV+PnHWkuIB+lND1o0wNErwWmqfNY+tpAL9YwxP3Mq8ZavnpJyfGeorKKJKdgyjMOV1vrnJ01Kj95aI75gOIhojiKkgE2wQpMAfS6XoOeTgQ4wSZdHYZvypANxjTQexWZLexCxdBQwFwobGvAE05nfFNgSb7sQnUrhqOVlZtHAYdiAQqLLgCC2wMi3pJ5vFhet8Ji+OL0dl5AYi0QQeA4AQAgVVAYKIAghgDwqD4cn78+fjcxR6BvMqYokLCU5knc13CoNxSHjJGyb3jfKARTkIEdcohUSCkdM3MIaRSYXpCaJJCdOUkFpiWsUDSRu2wt9gRKDaShFqgkEoaKihp8rVaR6vFY6silg3QW6WPDCtHpA/fg4NeuQVd4cP3QTs+aMiw7oFUwkcHwjUmTluKtiec2EvC5XN4KcxI5JoyjsKVMs+u0oZUes5uGGeHb4Em34RTfCNQkCV98Y1a5ptKeurOt83Ckos2TnqQ+0Y6BkhH25KOA9L5lkmnktL+86TTXcVya2QlHJDOb0s6oEghYpd0WKUE/udJh/eTdAKQjrUlXQAsHbdMOpXk2QPpXKYc2U/KBYByvCXl4NwXW16rlwxzIWzIHunoXpKOejCuoy3pgLaNA8ukU+nYgHQ3MbEeaiGuKJN54PP0H9mCp8ZKrrTAHoxkQwUwcaBSLI2F8OHu6vELkTNnxfVg73N2NKJGwmfuop8ZEmsjEcbfsHgcraarwvEsXITF43A2Lx4uousf+QeXcVbr1y+zbruqvUMKqETrnhYQxp/jq1eb+Bvv70/fsnD0w+P+lxXKfHlcLaMf4ThaRMv4zCz8Pn3Kf9Xb6d18kfTD03DxM1zNr6fZhSwNIvZL02PF2+eLRfWsvt2otQ8BCMeLIVeE+KqsPYIBnf2Ro3tkXX14wkeZmeBdniQ8SaN/0NkfXpRDJUDYCmKBihfCKi/qw/q6R/ElV+PB43g9aHz6wwaw7skBHYiUq7ZmArAXHMBudKgPEOwcOXMlYwKCcZLQdHKWxZuxweitvDJK4tLScKejy9P49ZvTj5Ni4GA/4TZ7zhwCiINJ1Y5QVfRCHvffP3HqgxYNEec8jV68SAec9IZDL+WP9Ez+EEhJIJj+gShXEAirCAQzC/pLB+tXNe346AvCAm+UU6JUMV7UMGrx3L6Crp3FlE0OHREj/CAo068yJ9JVIwLGDnwwiJLgICj8lRs2rE6QflXY/kjsLIflpHXfOMykX5bzTuYNNOWwCKhLDO5X1O2LwY3SQq3yVzduzjX++pC/MOJNl7/II8Cc75bAGgLxTkwwbmWDi/FU21ZDOrBYNzjKMRZTwcvU4wFpx2JOnSJxvxn5RqxwwaloYIdNhS9LYm5nsFuhVhXe4YAf0Fre6dKZYeAWM2E3w5/0G0G/Y0+4ZIVNMZjtpw1mAnoSoq0njJFbszmD1QiOcsVqkGigyXKJs8UIMAJTFKyoHoSFaj3LWLot2U05gkawOVaNAHEOZppeNWxBnfRmLEGUGC1IUNWNnaxBgIKgbPaGWDqAu0uBI/WCfmdkLk9S7f5bfJPMHnURF8bKHSamq2qFTmn4TJVNoyqd3AAu75xMFsWeDyChVNFVVEsX5up1UJXq23vph2Zjzy67jaAAI66AyO44I8VZI7FRp8no8iENejlyERFMCEAEq4oO2h1gqMGKBFdn+RJwpaZN4GRFAkx1Oo3SrpnrNAYrEsTO2FmOzPtN/JiT2PgAG6HqPNgqNK+vQAHRXWkhboXeIw5nzy0Xu6vjKqSXYT2EmilS4HZiG9GtU+Aa7XyQBolhGqQ27zjwubFt3r22UgVy7r2dc24tZiAGS/nAfO/2nIMhQqY59xrLFchJwf7xDpTvQaw174Dkgy2vm1GV7LYbW2eNddpVtx0bYRkoqYJgzrc+61CZdXlBb1v12F9jyQKpCe0f70BVlUqRdn3eiTLvCMwPMM2711e1gOpWLXCOdaAkPYKZ3/qsAxPiynYFplmHjbPOvcIFUjvYP97ByiqwUJ6+fuIB3kElxjTv+g1NrZmVaofl2Qkt9XUD/AO3eId9MBPwpdVqvNkOlumaWUsMpgqY5p1GNGlaM2OniW2tRPvGxTsqwUxM+t5bg5ngVLA3Nd/vXrmhfgvB45H2Hg7OlunYcYLly72qQWH4sgOlCKKTOkY5loQcMGKKevUxjrp5u7XUGycr4gFd14T4vCkhM9bNxrUf5wgz8lWFfYgMrS5n5BuzDQYLNNgr3NEHOj4G6PiKtPe87p4ldAzGL1quudNLBwqg/h8oKmMJux2oPpDRZKSwhvFzO1qYgaBUhFXVapQxQ8awZCqdsv9Iu8bY7RKnoFLMQYWTMtzOWCky1rOutw/VGHzd+BTfsYkuDThIuwmCltUhsU8rbcHa4aZ3EDUk7pWWMl7mUNtssw7c0w1ScY17hAUw5Qv5bXUWiiD5UGW7BNPs61nia5x/qBYFDTJPN1TFOeaJKvN4a+ZVTCjCsMKuaeb1mzLe0e41K3bQnn7SIdw/+gVV+om29PO9Kv3gEG6afiYlzDQrKYkXvzyJ58Bjp7fuxgHUKeRCadEfVwrM5vzxepXP5By4IXCOzYAJBTOrIVKUySNchaSxXDNmUg7czIC7dTmrKDE4/9UsZWgQI4Oi4PkmV+Zsv3DyQVXsfCgtdiZlxXRjRQSYoe2hCh6TZvhRubKOOXdJt8aIHM6dcZfAEjpqu+0iphJ0SUNsdwMLrpIwHeBcwWXvn3bam8u6RjsOaIdb044D2lnelIz3rMh2iXlrWEasA++095h1jXeVmkqteScA7yxv+8lxrS/UOb5g8uHj2WVxIdStaAI4D2SqXUCUswf+AmM6OTzcYM79ZtpXwaUfJ3Qd05O9j/YAEPHBfhx5gMHWiTqsldofQAZT7i/zAgjJdOHoU7K86eA8Ia9UmKHC5YrOVlSgaesPlZ6z7ffBZ+O6eQrSwjsydhLEy1Iokw5/07GTYEHKTBTg25geOw3l2zvts0kLuH+8E4B3vDXvAsC7wDLvDGqMqkHI+3qWaI6XJ7Jen3CyRE9sEssjUyAjybdWg+OmqsFxQ2nqTpsIoW0iuFMmYohgwrDH8/1LGmczwWjySrEh01bCvHgqHZx95J5wnnt0/XhbkW9IgJMuLKdwCg0V1fQ2wKga7awISFfv82kslUiodL7+1we7bwm8n1utvUzGRrsD2yaGSojbaq5n08fb9bNHL4HS8eE3fMyOWFSC2QEr/IGdSDA/wMLniGb/tpwMYHJASn+s8jHM33wOAR9j2gy7sBs7cMpVaXXKLAVjWxkKlYgHnoqzqZa6nVF/R3TpM2Cghw91N500aBQNRq2lpU3zYRInw+TRaL2pbbHOdptZ72skD5ju5JGfRfLYTUYSGvKcaeNX0SSUW80r95A2Fmwo6uWjzlsBF3pOzzv66lKX1UD3sq9nGYFWqpCer9fwOTnirAFFFclKMI3dMb6lIdMOl8FdObYVTffeDLDv5AYqmEMxjCiWci2nhsvF5b5zIJ3dClVyc+9yMXyEy+zh7ROB5OZsmzwMu2s3gUH9Z0+27SE+ECeRpwo1thtCEKjkl1ezbQ9BBEKi8N9tQ2ImV7NlxlyzxPb2VloSce/W15lfppBoa6QJARkjzHKuXKChD3VdOWuxbGaQc7oVnp3jHMhZEW1TNAlBcJ5umXMaIWymxQrsg12JBVZkRqojYsHT6m8Q6L7Hq9562bqkDNEuxde3bpHj30y3sAxGq40+etUtArcyAThM68bt7A+uFHMCDbU2P/HhMkpov7k95ujtRTQLkzv+Dw==</diagram></mxfile>
=======
<mxfile host="Electron" modified="2023-10-10T04:43:07.703Z" agent="Mozilla/5.0 (Windows NT 10.0; Win64; x64) AppleWebKit/537.36 (KHTML, like Gecko) draw.io/22.0.2 Chrome/114.0.5735.289 Electron/25.8.4 Safari/537.36" etag="DVxAQ4g4kEN6Yx0VjxXp" version="22.0.2" type="device" pages="2">
  <diagram id="C5RBs43oDa-KdzZeNtuy" name="Mối Kết Hợp">
    <mxGraphModel dx="3646" dy="1754" grid="1" gridSize="10" guides="1" tooltips="1" connect="1" arrows="1" fold="1" page="1" pageScale="1" pageWidth="827" pageHeight="1169" math="0" shadow="0">
      <root>
        <mxCell id="WIyWlLk6GJQsqaUBKTNV-0" />
        <mxCell id="WIyWlLk6GJQsqaUBKTNV-1" parent="WIyWlLk6GJQsqaUBKTNV-0" />
        <mxCell id="3_I5SoKO1ajLQpSbr8QC-1" value="&lt;font style=&quot;font-size: 48px;&quot;&gt;TÀI KHOẢN&lt;/font&gt;" style="rounded=0;whiteSpace=wrap;html=1;" parent="WIyWlLk6GJQsqaUBKTNV-1" vertex="1">
          <mxGeometry x="270" y="201" width="310" height="145" as="geometry" />
        </mxCell>
        <mxCell id="3_I5SoKO1ajLQpSbr8QC-2" value="&lt;font style=&quot;font-size: 48px;&quot;&gt;NHÂN VIÊN&lt;/font&gt;" style="rounded=0;whiteSpace=wrap;html=1;" parent="WIyWlLk6GJQsqaUBKTNV-1" vertex="1">
          <mxGeometry x="1105" y="204" width="310" height="140" as="geometry" />
        </mxCell>
        <mxCell id="3_I5SoKO1ajLQpSbr8QC-3" value="" style="group;fontSize=35;fontStyle=0" parent="WIyWlLk6GJQsqaUBKTNV-1" vertex="1" connectable="0">
          <mxGeometry x="1032" y="1551" width="290" height="170" as="geometry" />
        </mxCell>
        <mxCell id="3_I5SoKO1ajLQpSbr8QC-4" value="&lt;font style=&quot;font-size: 45px;&quot;&gt;Nhiệm Vụ&lt;/font&gt;" style="rounded=0;whiteSpace=wrap;html=1;movable=1;resizable=1;rotatable=1;deletable=1;editable=1;locked=0;connectable=1;" parent="3_I5SoKO1ajLQpSbr8QC-3" vertex="1">
          <mxGeometry width="290" height="170" as="geometry" />
        </mxCell>
        <mxCell id="3_I5SoKO1ajLQpSbr8QC-14" value="&lt;font style=&quot;font-size: 48px;&quot;&gt;DỰ ÁN&lt;/font&gt;" style="rounded=0;whiteSpace=wrap;html=1;" parent="WIyWlLk6GJQsqaUBKTNV-1" vertex="1">
          <mxGeometry x="2194" y="204" width="280" height="150" as="geometry" />
        </mxCell>
        <mxCell id="3_I5SoKO1ajLQpSbr8QC-18" value="" style="group;rounded=0;strokeColor=default;fontFamily=Helvetica;fontSize=12;fontColor=default;fillColor=default;html=1;" parent="WIyWlLk6GJQsqaUBKTNV-1" vertex="1" connectable="0">
          <mxGeometry x="2194" y="801" width="280" height="180" as="geometry" />
        </mxCell>
        <mxCell id="3_I5SoKO1ajLQpSbr8QC-19" value="&lt;font style=&quot;font-size: 48px;&quot;&gt;TEAM&lt;/font&gt;" style="rounded=0;whiteSpace=wrap;html=1;movable=1;resizable=1;rotatable=1;deletable=1;editable=1;locked=0;connectable=1;strokeColor=default;fontFamily=Helvetica;fontSize=12;fontColor=default;fillColor=default;" parent="3_I5SoKO1ajLQpSbr8QC-18" vertex="1">
          <mxGeometry x="10" y="10" width="256" height="153.63" as="geometry" />
        </mxCell>
        <mxCell id="3_I5SoKO1ajLQpSbr8QC-20" value="&lt;span style=&quot;font-size: 48px;&quot;&gt;CÔNG VIỆC&lt;/span&gt;" style="rounded=0;whiteSpace=wrap;html=1;" parent="WIyWlLk6GJQsqaUBKTNV-1" vertex="1">
          <mxGeometry x="2250" y="1561" width="325" height="160" as="geometry" />
        </mxCell>
        <mxCell id="3_I5SoKO1ajLQpSbr8QC-22" value="&lt;font style=&quot;font-size: 48px;&quot;&gt;TÀI NGUYÊN&lt;/font&gt;" style="rounded=0;whiteSpace=wrap;html=1;" parent="WIyWlLk6GJQsqaUBKTNV-1" vertex="1">
          <mxGeometry x="3102" y="198" width="380" height="170" as="geometry" />
        </mxCell>
        <mxCell id="3_I5SoKO1ajLQpSbr8QC-28" value="&lt;font style=&quot;font-size: 48px;&quot;&gt;CẤP&lt;/font&gt;" style="rhombus;whiteSpace=wrap;html=1;" parent="WIyWlLk6GJQsqaUBKTNV-1" vertex="1">
          <mxGeometry x="710" y="213" width="300" height="122.5" as="geometry" />
        </mxCell>
        <mxCell id="3_I5SoKO1ajLQpSbr8QC-51" value="&lt;span style=&quot;font-size: 48px;&quot;&gt;1&lt;/span&gt;" style="text;html=1;strokeColor=none;fillColor=none;align=center;verticalAlign=middle;whiteSpace=wrap;rounded=0;" parent="WIyWlLk6GJQsqaUBKTNV-1" vertex="1">
          <mxGeometry x="584" y="233" width="60" height="30" as="geometry" />
        </mxCell>
        <mxCell id="3_I5SoKO1ajLQpSbr8QC-52" value="&lt;span style=&quot;font-size: 48px;&quot;&gt;1&lt;/span&gt;" style="text;html=1;strokeColor=none;fillColor=none;align=center;verticalAlign=middle;whiteSpace=wrap;rounded=0;" parent="WIyWlLk6GJQsqaUBKTNV-1" vertex="1">
          <mxGeometry x="1040" y="233" width="60" height="30" as="geometry" />
        </mxCell>
        <mxCell id="3_I5SoKO1ajLQpSbr8QC-54" value="" style="shape=link;html=1;rounded=0;exitX=1;exitY=0.5;exitDx=0;exitDy=0;entryX=0;entryY=0.5;entryDx=0;entryDy=0;" parent="WIyWlLk6GJQsqaUBKTNV-1" source="3_I5SoKO1ajLQpSbr8QC-1" target="3_I5SoKO1ajLQpSbr8QC-28" edge="1">
          <mxGeometry width="100" relative="1" as="geometry">
            <mxPoint x="670" y="490" as="sourcePoint" />
            <mxPoint x="1650" y="-60" as="targetPoint" />
          </mxGeometry>
        </mxCell>
        <mxCell id="3_I5SoKO1ajLQpSbr8QC-55" value="" style="shape=link;html=1;rounded=0;exitX=1;exitY=0.5;exitDx=0;exitDy=0;entryX=0;entryY=0.5;entryDx=0;entryDy=0;" parent="WIyWlLk6GJQsqaUBKTNV-1" source="3_I5SoKO1ajLQpSbr8QC-28" target="3_I5SoKO1ajLQpSbr8QC-2" edge="1">
          <mxGeometry width="100" relative="1" as="geometry">
            <mxPoint x="590" y="284" as="sourcePoint" />
            <mxPoint x="1020" y="380" as="targetPoint" />
          </mxGeometry>
        </mxCell>
        <mxCell id="3_I5SoKO1ajLQpSbr8QC-57" value="&lt;span style=&quot;font-size: 48px;&quot;&gt;QUẢN LÝ&lt;/span&gt;" style="rhombus;whiteSpace=wrap;html=1;" parent="WIyWlLk6GJQsqaUBKTNV-1" vertex="1">
          <mxGeometry x="1610" y="207" width="374" height="135.5" as="geometry" />
        </mxCell>
        <mxCell id="3_I5SoKO1ajLQpSbr8QC-59" value="" style="endArrow=none;html=1;rounded=0;exitX=1;exitY=0.5;exitDx=0;exitDy=0;entryX=0;entryY=0.5;entryDx=0;entryDy=0;" parent="WIyWlLk6GJQsqaUBKTNV-1" source="3_I5SoKO1ajLQpSbr8QC-2" target="3_I5SoKO1ajLQpSbr8QC-57" edge="1">
          <mxGeometry width="50" height="50" relative="1" as="geometry">
            <mxPoint x="1480" y="80" as="sourcePoint" />
            <mxPoint x="1530" y="30" as="targetPoint" />
          </mxGeometry>
        </mxCell>
        <mxCell id="3_I5SoKO1ajLQpSbr8QC-60" value="" style="shape=link;html=1;rounded=0;entryX=0;entryY=0.5;entryDx=0;entryDy=0;exitX=1;exitY=0.5;exitDx=0;exitDy=0;" parent="WIyWlLk6GJQsqaUBKTNV-1" source="3_I5SoKO1ajLQpSbr8QC-57" target="3_I5SoKO1ajLQpSbr8QC-14" edge="1">
          <mxGeometry width="100" relative="1" as="geometry">
            <mxPoint x="1460" y="60" as="sourcePoint" />
            <mxPoint x="1560" y="60" as="targetPoint" />
          </mxGeometry>
        </mxCell>
        <mxCell id="3_I5SoKO1ajLQpSbr8QC-61" value="&lt;span style=&quot;font-size: 48px;&quot;&gt;1&lt;/span&gt;" style="text;html=1;strokeColor=none;fillColor=none;align=center;verticalAlign=middle;whiteSpace=wrap;rounded=0;" parent="WIyWlLk6GJQsqaUBKTNV-1" vertex="1">
          <mxGeometry x="1415" y="233" width="60" height="30" as="geometry" />
        </mxCell>
        <mxCell id="3_I5SoKO1ajLQpSbr8QC-62" value="&lt;span style=&quot;font-size: 48px;&quot;&gt;1&lt;/span&gt;" style="text;html=1;strokeColor=none;fillColor=none;align=center;verticalAlign=middle;whiteSpace=wrap;rounded=0;" parent="WIyWlLk6GJQsqaUBKTNV-1" vertex="1">
          <mxGeometry x="2134" y="240" width="60" height="30" as="geometry" />
        </mxCell>
        <mxCell id="3_I5SoKO1ajLQpSbr8QC-63" value="&lt;span style=&quot;font-size: 48px;&quot;&gt;CẤP&lt;/span&gt;" style="rhombus;whiteSpace=wrap;html=1;" parent="WIyWlLk6GJQsqaUBKTNV-1" vertex="1">
          <mxGeometry x="2610" y="213" width="374" height="135.5" as="geometry" />
        </mxCell>
        <mxCell id="3_I5SoKO1ajLQpSbr8QC-64" value="" style="endArrow=none;html=1;rounded=0;exitX=1;exitY=0.5;exitDx=0;exitDy=0;entryX=0;entryY=0.5;entryDx=0;entryDy=0;" parent="WIyWlLk6GJQsqaUBKTNV-1" source="3_I5SoKO1ajLQpSbr8QC-63" target="3_I5SoKO1ajLQpSbr8QC-22" edge="1">
          <mxGeometry width="50" height="50" relative="1" as="geometry">
            <mxPoint x="2810" y="110" as="sourcePoint" />
            <mxPoint x="3005" y="110.75" as="targetPoint" />
          </mxGeometry>
        </mxCell>
        <mxCell id="3_I5SoKO1ajLQpSbr8QC-65" value="" style="shape=link;html=1;rounded=0;entryX=0;entryY=0.5;entryDx=0;entryDy=0;exitX=1;exitY=0.5;exitDx=0;exitDy=0;" parent="WIyWlLk6GJQsqaUBKTNV-1" source="3_I5SoKO1ajLQpSbr8QC-14" target="3_I5SoKO1ajLQpSbr8QC-63" edge="1">
          <mxGeometry width="100" relative="1" as="geometry">
            <mxPoint x="2435" y="54" as="sourcePoint" />
            <mxPoint x="3169" y="273" as="targetPoint" />
          </mxGeometry>
        </mxCell>
        <mxCell id="3_I5SoKO1ajLQpSbr8QC-68" value="&lt;span style=&quot;font-size: 48px;&quot;&gt;n&lt;/span&gt;" style="text;html=1;strokeColor=none;fillColor=none;align=center;verticalAlign=middle;whiteSpace=wrap;rounded=0;" parent="WIyWlLk6GJQsqaUBKTNV-1" vertex="1">
          <mxGeometry x="2474" y="240" width="60" height="30" as="geometry" />
        </mxCell>
        <mxCell id="3_I5SoKO1ajLQpSbr8QC-69" value="&lt;span style=&quot;font-size: 48px;&quot;&gt;n&lt;/span&gt;" style="text;html=1;strokeColor=none;fillColor=none;align=center;verticalAlign=middle;whiteSpace=wrap;rounded=0;" parent="WIyWlLk6GJQsqaUBKTNV-1" vertex="1">
          <mxGeometry x="3042" y="245" width="60" height="30" as="geometry" />
        </mxCell>
        <mxCell id="3_I5SoKO1ajLQpSbr8QC-73" value="" style="group" parent="WIyWlLk6GJQsqaUBKTNV-1" vertex="1" connectable="0">
          <mxGeometry x="2107" y="490" width="454" height="153.75" as="geometry" />
        </mxCell>
        <mxCell id="3_I5SoKO1ajLQpSbr8QC-72" value="" style="rhombus;whiteSpace=wrap;html=1;" parent="3_I5SoKO1ajLQpSbr8QC-73" vertex="1">
          <mxGeometry width="454" height="153.75" as="geometry" />
        </mxCell>
        <mxCell id="3_I5SoKO1ajLQpSbr8QC-71" value="&lt;span style=&quot;font-size: 48px;&quot;&gt;QUẢN LÝ&lt;/span&gt;" style="rhombus;whiteSpace=wrap;html=1;" parent="3_I5SoKO1ajLQpSbr8QC-73" vertex="1">
          <mxGeometry x="40" y="9.129999999999995" width="374" height="135.5" as="geometry" />
        </mxCell>
        <mxCell id="3_I5SoKO1ajLQpSbr8QC-74" value="" style="shape=link;html=1;rounded=0;entryX=0.5;entryY=1;entryDx=0;entryDy=0;exitX=0.5;exitY=0;exitDx=0;exitDy=0;" parent="WIyWlLk6GJQsqaUBKTNV-1" source="3_I5SoKO1ajLQpSbr8QC-72" target="3_I5SoKO1ajLQpSbr8QC-14" edge="1">
          <mxGeometry width="100" relative="1" as="geometry">
            <mxPoint x="1994" y="285" as="sourcePoint" />
            <mxPoint x="2204" y="289" as="targetPoint" />
          </mxGeometry>
        </mxCell>
        <mxCell id="3_I5SoKO1ajLQpSbr8QC-75" value="" style="shape=link;html=1;rounded=0;entryX=0.5;entryY=0;entryDx=0;entryDy=0;exitX=0.5;exitY=1;exitDx=0;exitDy=0;" parent="WIyWlLk6GJQsqaUBKTNV-1" source="3_I5SoKO1ajLQpSbr8QC-72" target="3_I5SoKO1ajLQpSbr8QC-19" edge="1">
          <mxGeometry width="100" relative="1" as="geometry">
            <mxPoint x="2344" y="500" as="sourcePoint" />
            <mxPoint x="2344" y="364" as="targetPoint" />
          </mxGeometry>
        </mxCell>
        <mxCell id="3_I5SoKO1ajLQpSbr8QC-76" value="&lt;span style=&quot;font-size: 48px;&quot;&gt;n&lt;/span&gt;" style="text;html=1;strokeColor=none;fillColor=none;align=center;verticalAlign=middle;whiteSpace=wrap;rounded=0;" parent="WIyWlLk6GJQsqaUBKTNV-1" vertex="1">
          <mxGeometry x="2340" y="760" width="60" height="30" as="geometry" />
        </mxCell>
        <mxCell id="3_I5SoKO1ajLQpSbr8QC-77" value="&lt;span style=&quot;font-size: 48px;&quot;&gt;1&lt;/span&gt;" style="text;html=1;strokeColor=none;fillColor=none;align=center;verticalAlign=middle;whiteSpace=wrap;rounded=0;" parent="WIyWlLk6GJQsqaUBKTNV-1" vertex="1">
          <mxGeometry x="2330" y="368" width="60" height="30" as="geometry" />
        </mxCell>
        <mxCell id="3_I5SoKO1ajLQpSbr8QC-78" value="&lt;span style=&quot;font-size: 48px;&quot;&gt;SPRINT&lt;/span&gt;" style="rounded=0;whiteSpace=wrap;html=1;" parent="WIyWlLk6GJQsqaUBKTNV-1" vertex="1">
          <mxGeometry x="3102" y="801" width="370" height="171" as="geometry" />
        </mxCell>
        <mxCell id="3_I5SoKO1ajLQpSbr8QC-79" value="" style="group" parent="WIyWlLk6GJQsqaUBKTNV-1" vertex="1" connectable="0">
          <mxGeometry x="400" y="1140" width="200" height="110" as="geometry" />
        </mxCell>
        <mxCell id="3_I5SoKO1ajLQpSbr8QC-80" value="" style="rounded=0;whiteSpace=wrap;html=1;movable=1;resizable=1;rotatable=1;deletable=1;editable=1;locked=0;connectable=1;" parent="3_I5SoKO1ajLQpSbr8QC-79" vertex="1">
          <mxGeometry x="-220" y="-70" width="420" height="180" as="geometry" />
        </mxCell>
        <mxCell id="3_I5SoKO1ajLQpSbr8QC-81" value="&lt;font style=&quot;font-size: 48px;&quot;&gt;ĐIỂM DANH NGÀY NGHỈ&lt;/font&gt;" style="rounded=0;whiteSpace=wrap;html=1;movable=1;resizable=1;rotatable=1;deletable=1;editable=1;locked=0;connectable=1;" parent="3_I5SoKO1ajLQpSbr8QC-79" vertex="1">
          <mxGeometry x="-210" y="-60" width="400" height="160" as="geometry" />
        </mxCell>
        <mxCell id="3_I5SoKO1ajLQpSbr8QC-82" value="" style="shape=link;html=1;rounded=0;entryX=0;entryY=0;entryDx=0;entryDy=0;exitX=1;exitY=0.5;exitDx=0;exitDy=0;" parent="WIyWlLk6GJQsqaUBKTNV-1" source="3_I5SoKO1ajLQpSbr8QC-85" target="3_I5SoKO1ajLQpSbr8QC-78" edge="1">
          <mxGeometry width="100" relative="1" as="geometry">
            <mxPoint x="2880" y="650" as="sourcePoint" />
            <mxPoint x="2204" y="289" as="targetPoint" />
          </mxGeometry>
        </mxCell>
        <mxCell id="3_I5SoKO1ajLQpSbr8QC-83" value="" style="shape=link;html=1;rounded=0;entryX=1;entryY=1;entryDx=0;entryDy=0;exitX=0;exitY=0.5;exitDx=0;exitDy=0;" parent="WIyWlLk6GJQsqaUBKTNV-1" source="3_I5SoKO1ajLQpSbr8QC-85" target="3_I5SoKO1ajLQpSbr8QC-14" edge="1">
          <mxGeometry width="100" relative="1" as="geometry">
            <mxPoint x="2670" y="490" as="sourcePoint" />
            <mxPoint x="2214" y="299" as="targetPoint" />
          </mxGeometry>
        </mxCell>
        <mxCell id="3_I5SoKO1ajLQpSbr8QC-85" value="&lt;span style=&quot;font-size: 48px;&quot;&gt;GỒM&lt;/span&gt;" style="rhombus;whiteSpace=wrap;html=1;" parent="WIyWlLk6GJQsqaUBKTNV-1" vertex="1">
          <mxGeometry x="2650" y="500" width="270" height="105.5" as="geometry" />
        </mxCell>
        <mxCell id="3_I5SoKO1ajLQpSbr8QC-86" value="&lt;span style=&quot;font-size: 48px;&quot;&gt;1&lt;/span&gt;" style="text;html=1;strokeColor=none;fillColor=none;align=center;verticalAlign=middle;whiteSpace=wrap;rounded=0;" parent="WIyWlLk6GJQsqaUBKTNV-1" vertex="1">
          <mxGeometry x="2474" y="342.5" width="60" height="30" as="geometry" />
        </mxCell>
        <mxCell id="3_I5SoKO1ajLQpSbr8QC-87" value="&lt;span style=&quot;font-size: 48px;&quot;&gt;n&lt;/span&gt;" style="text;html=1;strokeColor=none;fillColor=none;align=center;verticalAlign=middle;whiteSpace=wrap;rounded=0;" parent="WIyWlLk6GJQsqaUBKTNV-1" vertex="1">
          <mxGeometry x="3102" y="750" width="60" height="30" as="geometry" />
        </mxCell>
        <mxCell id="3_I5SoKO1ajLQpSbr8QC-88" value="" style="shape=link;html=1;rounded=0;entryX=0.5;entryY=0;entryDx=0;entryDy=0;exitX=0.5;exitY=1;exitDx=0;exitDy=0;" parent="WIyWlLk6GJQsqaUBKTNV-1" source="3_I5SoKO1ajLQpSbr8QC-90" target="3_I5SoKO1ajLQpSbr8QC-20" edge="1">
          <mxGeometry width="100" relative="1" as="geometry">
            <mxPoint x="2426" y="1267.5" as="sourcePoint" />
            <mxPoint x="2648" y="1418.5" as="targetPoint" />
          </mxGeometry>
        </mxCell>
        <mxCell id="3_I5SoKO1ajLQpSbr8QC-89" value="" style="shape=link;html=1;rounded=0;exitX=0.5;exitY=0;exitDx=0;exitDy=0;entryX=0.5;entryY=1;entryDx=0;entryDy=0;" parent="WIyWlLk6GJQsqaUBKTNV-1" source="3_I5SoKO1ajLQpSbr8QC-90" target="3_I5SoKO1ajLQpSbr8QC-19" edge="1">
          <mxGeometry width="100" relative="1" as="geometry">
            <mxPoint x="2216" y="1107.5" as="sourcePoint" />
            <mxPoint x="2330" y="1020" as="targetPoint" />
          </mxGeometry>
        </mxCell>
        <mxCell id="shMjv0mOl_azaOuttDhN-2" value="" style="edgeStyle=orthogonalEdgeStyle;rounded=0;orthogonalLoop=1;jettySize=auto;html=1;fontSize=40;" parent="WIyWlLk6GJQsqaUBKTNV-1" source="3_I5SoKO1ajLQpSbr8QC-90" target="3_I5SoKO1ajLQpSbr8QC-143" edge="1">
          <mxGeometry relative="1" as="geometry" />
        </mxCell>
        <mxCell id="3_I5SoKO1ajLQpSbr8QC-90" value="&lt;span style=&quot;font-size: 48px;&quot;&gt;PHÂN CÔNG&lt;/span&gt;" style="rhombus;whiteSpace=wrap;html=1;" parent="WIyWlLk6GJQsqaUBKTNV-1" vertex="1">
          <mxGeometry x="2130" y="1200" width="426" height="153" as="geometry" />
        </mxCell>
        <mxCell id="3_I5SoKO1ajLQpSbr8QC-91" value="&lt;span style=&quot;font-size: 48px;&quot;&gt;1&lt;/span&gt;" style="text;html=1;strokeColor=none;fillColor=none;align=center;verticalAlign=middle;whiteSpace=wrap;rounded=0;" parent="WIyWlLk6GJQsqaUBKTNV-1" vertex="1">
          <mxGeometry x="2330" y="990" width="60" height="30" as="geometry" />
        </mxCell>
        <mxCell id="3_I5SoKO1ajLQpSbr8QC-93" value="&lt;span style=&quot;font-size: 48px;&quot;&gt;n&lt;/span&gt;" style="text;html=1;strokeColor=none;fillColor=none;align=center;verticalAlign=middle;whiteSpace=wrap;rounded=0;" parent="WIyWlLk6GJQsqaUBKTNV-1" vertex="1">
          <mxGeometry x="2330" y="1516" width="60" height="30" as="geometry" />
        </mxCell>
        <mxCell id="3_I5SoKO1ajLQpSbr8QC-94" value="" style="shape=link;html=1;rounded=0;entryX=1;entryY=0;entryDx=0;entryDy=0;exitX=0;exitY=0.5;exitDx=0;exitDy=0;" parent="WIyWlLk6GJQsqaUBKTNV-1" source="3_I5SoKO1ajLQpSbr8QC-96" target="3_I5SoKO1ajLQpSbr8QC-20" edge="1">
          <mxGeometry width="100" relative="1" as="geometry">
            <mxPoint x="3036" y="1187.5" as="sourcePoint" />
            <mxPoint x="3258" y="1338.5" as="targetPoint" />
          </mxGeometry>
        </mxCell>
        <mxCell id="3_I5SoKO1ajLQpSbr8QC-95" value="" style="shape=link;html=1;rounded=0;entryX=0;entryY=1;entryDx=0;entryDy=0;exitX=1;exitY=0.5;exitDx=0;exitDy=0;" parent="WIyWlLk6GJQsqaUBKTNV-1" source="3_I5SoKO1ajLQpSbr8QC-96" target="3_I5SoKO1ajLQpSbr8QC-78" edge="1">
          <mxGeometry width="100" relative="1" as="geometry">
            <mxPoint x="2826" y="1027.5" as="sourcePoint" />
            <mxPoint x="2630" y="891.5" as="targetPoint" />
          </mxGeometry>
        </mxCell>
        <mxCell id="3_I5SoKO1ajLQpSbr8QC-96" value="&lt;span style=&quot;font-size: 48px;&quot;&gt;GỒM&lt;/span&gt;" style="rhombus;whiteSpace=wrap;html=1;" parent="WIyWlLk6GJQsqaUBKTNV-1" vertex="1">
          <mxGeometry x="2714" y="1144.5" width="270" height="105.5" as="geometry" />
        </mxCell>
        <mxCell id="3_I5SoKO1ajLQpSbr8QC-97" value="&lt;span style=&quot;font-size: 48px;&quot;&gt;1&lt;/span&gt;" style="text;html=1;strokeColor=none;fillColor=none;align=center;verticalAlign=middle;whiteSpace=wrap;rounded=0;" parent="WIyWlLk6GJQsqaUBKTNV-1" vertex="1">
          <mxGeometry x="3030" y="980" width="60" height="30" as="geometry" />
        </mxCell>
        <mxCell id="3_I5SoKO1ajLQpSbr8QC-98" value="&lt;span style=&quot;font-size: 48px;&quot;&gt;n&lt;/span&gt;" style="text;html=1;strokeColor=none;fillColor=none;align=center;verticalAlign=middle;whiteSpace=wrap;rounded=0;" parent="WIyWlLk6GJQsqaUBKTNV-1" vertex="1">
          <mxGeometry x="2501" y="1531" width="60" height="30" as="geometry" />
        </mxCell>
        <mxCell id="3_I5SoKO1ajLQpSbr8QC-103" value="" style="shape=link;html=1;rounded=0;entryX=1;entryY=0.5;entryDx=0;entryDy=0;exitX=0;exitY=0.5;exitDx=0;exitDy=0;" parent="WIyWlLk6GJQsqaUBKTNV-1" source="3_I5SoKO1ajLQpSbr8QC-105" target="3_I5SoKO1ajLQpSbr8QC-4" edge="1">
          <mxGeometry width="100" relative="1" as="geometry">
            <mxPoint x="1986" y="1656.5" as="sourcePoint" />
            <mxPoint x="1440" y="1869" as="targetPoint" />
          </mxGeometry>
        </mxCell>
        <mxCell id="3_I5SoKO1ajLQpSbr8QC-104" value="" style="shape=link;html=1;rounded=0;entryX=0;entryY=0.5;entryDx=0;entryDy=0;exitX=1;exitY=0.5;exitDx=0;exitDy=0;" parent="WIyWlLk6GJQsqaUBKTNV-1" source="3_I5SoKO1ajLQpSbr8QC-105" target="3_I5SoKO1ajLQpSbr8QC-20" edge="1">
          <mxGeometry width="100" relative="1" as="geometry">
            <mxPoint x="1776" y="1496.5" as="sourcePoint" />
            <mxPoint x="2052" y="1441" as="targetPoint" />
          </mxGeometry>
        </mxCell>
        <mxCell id="3_I5SoKO1ajLQpSbr8QC-105" value="&lt;span style=&quot;font-size: 48px;&quot;&gt;GỒM&lt;/span&gt;" style="rhombus;whiteSpace=wrap;html=1;" parent="WIyWlLk6GJQsqaUBKTNV-1" vertex="1">
          <mxGeometry x="1640" y="1578.25" width="270" height="105.5" as="geometry" />
        </mxCell>
        <mxCell id="3_I5SoKO1ajLQpSbr8QC-106" value="&lt;span style=&quot;font-size: 48px;&quot;&gt;1&lt;/span&gt;" style="text;html=1;strokeColor=none;fillColor=none;align=center;verticalAlign=middle;whiteSpace=wrap;rounded=0;" parent="WIyWlLk6GJQsqaUBKTNV-1" vertex="1">
          <mxGeometry x="2111.5" y="1591" width="60" height="30" as="geometry" />
        </mxCell>
        <mxCell id="3_I5SoKO1ajLQpSbr8QC-107" value="&lt;span style=&quot;font-size: 48px;&quot;&gt;n&lt;/span&gt;" style="text;html=1;strokeColor=none;fillColor=none;align=center;verticalAlign=middle;whiteSpace=wrap;rounded=0;" parent="WIyWlLk6GJQsqaUBKTNV-1" vertex="1">
          <mxGeometry x="1396" y="1591" width="60" height="30" as="geometry" />
        </mxCell>
        <mxCell id="3_I5SoKO1ajLQpSbr8QC-108" value="&lt;span style=&quot;font-size: 48px;&quot;&gt;PHÂN CÔNG&lt;/span&gt;" style="rhombus;whiteSpace=wrap;html=1;" parent="WIyWlLk6GJQsqaUBKTNV-1" vertex="1">
          <mxGeometry x="990" y="770" width="374" height="135.5" as="geometry" />
        </mxCell>
        <mxCell id="3_I5SoKO1ajLQpSbr8QC-109" value="" style="endArrow=none;html=1;rounded=0;exitX=0.25;exitY=1;exitDx=0;exitDy=0;entryX=0.5;entryY=0;entryDx=0;entryDy=0;" parent="WIyWlLk6GJQsqaUBKTNV-1" source="3_I5SoKO1ajLQpSbr8QC-2" target="3_I5SoKO1ajLQpSbr8QC-108" edge="1">
          <mxGeometry width="50" height="50" relative="1" as="geometry">
            <mxPoint x="851.5" y="817" as="sourcePoint" />
            <mxPoint x="966.5" y="573" as="targetPoint" />
          </mxGeometry>
        </mxCell>
        <mxCell id="3_I5SoKO1ajLQpSbr8QC-110" value="" style="shape=link;html=1;rounded=0;entryX=0.5;entryY=0;entryDx=0;entryDy=0;exitX=0.5;exitY=1;exitDx=0;exitDy=0;" parent="WIyWlLk6GJQsqaUBKTNV-1" source="3_I5SoKO1ajLQpSbr8QC-108" target="3_I5SoKO1ajLQpSbr8QC-4" edge="1">
          <mxGeometry width="100" relative="1" as="geometry">
            <mxPoint x="896.5" y="603" as="sourcePoint" />
            <mxPoint x="1630.5" y="822" as="targetPoint" />
          </mxGeometry>
        </mxCell>
        <mxCell id="3_I5SoKO1ajLQpSbr8QC-111" value="&lt;span style=&quot;font-size: 48px;&quot;&gt;1&lt;/span&gt;" style="text;html=1;strokeColor=none;fillColor=none;align=center;verticalAlign=middle;whiteSpace=wrap;rounded=0;" parent="WIyWlLk6GJQsqaUBKTNV-1" vertex="1">
          <mxGeometry x="1140" y="368" width="60" height="30" as="geometry" />
        </mxCell>
        <mxCell id="3_I5SoKO1ajLQpSbr8QC-112" value="&lt;span style=&quot;font-size: 48px;&quot;&gt;n&lt;/span&gt;" style="text;html=1;strokeColor=none;fillColor=none;align=center;verticalAlign=middle;whiteSpace=wrap;rounded=0;" parent="WIyWlLk6GJQsqaUBKTNV-1" vertex="1">
          <mxGeometry x="1260" y="1501" width="60" height="30" as="geometry" />
        </mxCell>
        <mxCell id="3_I5SoKO1ajLQpSbr8QC-114" value="" style="group" parent="WIyWlLk6GJQsqaUBKTNV-1" vertex="1" connectable="0">
          <mxGeometry x="620" y="616.25" width="454" height="153.75" as="geometry" />
        </mxCell>
        <mxCell id="3_I5SoKO1ajLQpSbr8QC-115" value="" style="rhombus;whiteSpace=wrap;html=1;" parent="3_I5SoKO1ajLQpSbr8QC-114" vertex="1">
          <mxGeometry width="454" height="153.75" as="geometry" />
        </mxCell>
        <mxCell id="3_I5SoKO1ajLQpSbr8QC-116" value="&lt;span style=&quot;font-size: 48px;&quot;&gt;CHẤM CÔNG&lt;/span&gt;" style="rhombus;whiteSpace=wrap;html=1;" parent="3_I5SoKO1ajLQpSbr8QC-114" vertex="1">
          <mxGeometry x="40" y="9.129999999999995" width="374" height="135.5" as="geometry" />
        </mxCell>
        <mxCell id="3_I5SoKO1ajLQpSbr8QC-117" value="" style="shape=link;html=1;rounded=0;entryX=0;entryY=1;entryDx=0;entryDy=0;exitX=0.5;exitY=0;exitDx=0;exitDy=0;" parent="WIyWlLk6GJQsqaUBKTNV-1" source="3_I5SoKO1ajLQpSbr8QC-115" target="3_I5SoKO1ajLQpSbr8QC-2" edge="1">
          <mxGeometry width="100" relative="1" as="geometry">
            <mxPoint x="497" y="352.5" as="sourcePoint" />
            <mxPoint x="837" y="421.5" as="targetPoint" />
          </mxGeometry>
        </mxCell>
        <mxCell id="3_I5SoKO1ajLQpSbr8QC-118" value="" style="shape=link;html=1;rounded=0;entryX=1;entryY=0;entryDx=0;entryDy=0;exitX=0.5;exitY=1;exitDx=0;exitDy=0;" parent="WIyWlLk6GJQsqaUBKTNV-1" source="3_I5SoKO1ajLQpSbr8QC-115" target="3_I5SoKO1ajLQpSbr8QC-80" edge="1">
          <mxGeometry width="100" relative="1" as="geometry">
            <mxPoint x="847" y="567.5" as="sourcePoint" />
            <mxPoint x="835" y="878.5" as="targetPoint" />
          </mxGeometry>
        </mxCell>
        <mxCell id="3_I5SoKO1ajLQpSbr8QC-119" value="&lt;span style=&quot;font-size: 48px;&quot;&gt;n&lt;/span&gt;" style="text;html=1;strokeColor=none;fillColor=none;align=center;verticalAlign=middle;whiteSpace=wrap;rounded=0;" parent="WIyWlLk6GJQsqaUBKTNV-1" vertex="1">
          <mxGeometry x="560" y="1000" width="60" height="30" as="geometry" />
        </mxCell>
        <mxCell id="3_I5SoKO1ajLQpSbr8QC-120" value="&lt;span style=&quot;font-size: 48px;&quot;&gt;1&lt;/span&gt;" style="text;html=1;strokeColor=none;fillColor=none;align=center;verticalAlign=middle;whiteSpace=wrap;rounded=0;" parent="WIyWlLk6GJQsqaUBKTNV-1" vertex="1">
          <mxGeometry x="1030" y="324" width="60" height="30" as="geometry" />
        </mxCell>
        <mxCell id="3_I5SoKO1ajLQpSbr8QC-123" value="&lt;span style=&quot;font-size: 48px;&quot;&gt;QUẢN LÝ&lt;/span&gt;" style="rhombus;whiteSpace=wrap;html=1;" parent="WIyWlLk6GJQsqaUBKTNV-1" vertex="1">
          <mxGeometry x="1560" y="845.5" width="374" height="135.5" as="geometry" />
        </mxCell>
        <mxCell id="3_I5SoKO1ajLQpSbr8QC-124" value="" style="endArrow=none;html=1;rounded=0;exitX=0.75;exitY=1;exitDx=0;exitDy=0;entryX=0;entryY=0.5;entryDx=0;entryDy=0;" parent="WIyWlLk6GJQsqaUBKTNV-1" source="3_I5SoKO1ajLQpSbr8QC-2" target="3_I5SoKO1ajLQpSbr8QC-123" edge="1">
          <mxGeometry width="50" height="50" relative="1" as="geometry">
            <mxPoint x="1407.5" y="607" as="sourcePoint" />
            <mxPoint x="1522.5" y="363" as="targetPoint" />
          </mxGeometry>
        </mxCell>
        <mxCell id="3_I5SoKO1ajLQpSbr8QC-125" value="" style="shape=link;html=1;rounded=0;entryX=0;entryY=0.75;entryDx=0;entryDy=0;exitX=1;exitY=0.5;exitDx=0;exitDy=0;" parent="WIyWlLk6GJQsqaUBKTNV-1" source="3_I5SoKO1ajLQpSbr8QC-123" target="3_I5SoKO1ajLQpSbr8QC-19" edge="1">
          <mxGeometry width="100" relative="1" as="geometry">
            <mxPoint x="1452.5" y="393" as="sourcePoint" />
            <mxPoint x="2186.5" y="612" as="targetPoint" />
          </mxGeometry>
        </mxCell>
        <mxCell id="3_I5SoKO1ajLQpSbr8QC-126" value="&lt;span style=&quot;font-size: 48px;&quot;&gt;1&lt;/span&gt;" style="text;html=1;strokeColor=none;fillColor=none;align=center;verticalAlign=middle;whiteSpace=wrap;rounded=0;" parent="WIyWlLk6GJQsqaUBKTNV-1" vertex="1">
          <mxGeometry x="1339" y="354" width="60" height="30" as="geometry" />
        </mxCell>
        <mxCell id="3_I5SoKO1ajLQpSbr8QC-127" value="&lt;span style=&quot;font-size: 48px;&quot;&gt;1&lt;/span&gt;" style="text;html=1;strokeColor=none;fillColor=none;align=center;verticalAlign=middle;whiteSpace=wrap;rounded=0;" parent="WIyWlLk6GJQsqaUBKTNV-1" vertex="1">
          <mxGeometry x="2150" y="870" width="60" height="30" as="geometry" />
        </mxCell>
        <mxCell id="3_I5SoKO1ajLQpSbr8QC-134" value="&lt;span style=&quot;font-size: 48px;&quot;&gt;THAM GIA&lt;/span&gt;" style="rhombus;whiteSpace=wrap;html=1;" parent="WIyWlLk6GJQsqaUBKTNV-1" vertex="1">
          <mxGeometry x="1594" y="584.5" width="374" height="135.5" as="geometry" />
        </mxCell>
        <mxCell id="3_I5SoKO1ajLQpSbr8QC-135" value="" style="endArrow=none;html=1;rounded=0;exitX=1;exitY=1;exitDx=0;exitDy=0;entryX=0;entryY=0.5;entryDx=0;entryDy=0;" parent="WIyWlLk6GJQsqaUBKTNV-1" source="3_I5SoKO1ajLQpSbr8QC-2" target="3_I5SoKO1ajLQpSbr8QC-134" edge="1">
          <mxGeometry width="50" height="50" relative="1" as="geometry">
            <mxPoint x="1399" y="516" as="sourcePoint" />
            <mxPoint x="1514" y="272" as="targetPoint" />
          </mxGeometry>
        </mxCell>
        <mxCell id="3_I5SoKO1ajLQpSbr8QC-136" value="" style="shape=link;html=1;rounded=0;entryX=0;entryY=0;entryDx=0;entryDy=0;exitX=1;exitY=0.5;exitDx=0;exitDy=0;" parent="WIyWlLk6GJQsqaUBKTNV-1" source="3_I5SoKO1ajLQpSbr8QC-134" target="3_I5SoKO1ajLQpSbr8QC-19" edge="1">
          <mxGeometry width="100" relative="1" as="geometry">
            <mxPoint x="1444" y="302" as="sourcePoint" />
            <mxPoint x="2178" y="521" as="targetPoint" />
          </mxGeometry>
        </mxCell>
        <mxCell id="3_I5SoKO1ajLQpSbr8QC-137" value="&lt;span style=&quot;font-size: 48px;&quot;&gt;n&lt;/span&gt;" style="text;html=1;strokeColor=none;fillColor=none;align=center;verticalAlign=middle;whiteSpace=wrap;rounded=0;" parent="WIyWlLk6GJQsqaUBKTNV-1" vertex="1">
          <mxGeometry x="1420" y="324" width="60" height="30" as="geometry" />
        </mxCell>
        <mxCell id="3_I5SoKO1ajLQpSbr8QC-138" value="&lt;span style=&quot;font-size: 48px;&quot;&gt;n&lt;/span&gt;" style="text;html=1;strokeColor=none;fillColor=none;align=center;verticalAlign=middle;whiteSpace=wrap;rounded=0;" parent="WIyWlLk6GJQsqaUBKTNV-1" vertex="1">
          <mxGeometry x="2171.5" y="750" width="60" height="30" as="geometry" />
        </mxCell>
        <mxCell id="3_I5SoKO1ajLQpSbr8QC-140" value="&lt;span style=&quot;font-size: 36px;&quot;&gt;Capacity per day&lt;/span&gt;" style="ellipse;whiteSpace=wrap;html=1;" parent="WIyWlLk6GJQsqaUBKTNV-1" vertex="1">
          <mxGeometry x="1760" y="398" width="370" height="140" as="geometry" />
        </mxCell>
        <mxCell id="3_I5SoKO1ajLQpSbr8QC-141" value="" style="endArrow=none;html=1;rounded=0;entryX=0.5;entryY=1;entryDx=0;entryDy=0;exitX=1;exitY=0;exitDx=0;exitDy=0;" parent="WIyWlLk6GJQsqaUBKTNV-1" source="3_I5SoKO1ajLQpSbr8QC-134" target="3_I5SoKO1ajLQpSbr8QC-140" edge="1">
          <mxGeometry width="50" height="50" relative="1" as="geometry">
            <mxPoint x="1360" y="600" as="sourcePoint" />
            <mxPoint x="1410" y="550" as="targetPoint" />
          </mxGeometry>
        </mxCell>
        <mxCell id="3_I5SoKO1ajLQpSbr8QC-143" value="&lt;span style=&quot;font-size: 48px;&quot;&gt;Ước Lượng&lt;/span&gt;" style="rhombus;whiteSpace=wrap;html=1;" parent="WIyWlLk6GJQsqaUBKTNV-1" vertex="1">
          <mxGeometry x="1446" y="1030" width="464" height="185.5" as="geometry" />
        </mxCell>
        <mxCell id="3_I5SoKO1ajLQpSbr8QC-144" value="" style="endArrow=none;html=1;rounded=0;entryX=0.5;entryY=1;entryDx=0;entryDy=0;exitX=0;exitY=0.5;exitDx=0;exitDy=0;" parent="WIyWlLk6GJQsqaUBKTNV-1" source="3_I5SoKO1ajLQpSbr8QC-143" target="3_I5SoKO1ajLQpSbr8QC-2" edge="1">
          <mxGeometry width="50" height="50" relative="1" as="geometry">
            <mxPoint x="2260" y="850" as="sourcePoint" />
            <mxPoint x="1370" y="560" as="targetPoint" />
          </mxGeometry>
        </mxCell>
        <mxCell id="3_I5SoKO1ajLQpSbr8QC-145" value="" style="endArrow=none;html=1;rounded=0;entryX=0.25;entryY=1;entryDx=0;entryDy=0;exitX=0.5;exitY=0;exitDx=0;exitDy=0;" parent="WIyWlLk6GJQsqaUBKTNV-1" source="3_I5SoKO1ajLQpSbr8QC-143" target="3_I5SoKO1ajLQpSbr8QC-14" edge="1">
          <mxGeometry width="50" height="50" relative="1" as="geometry">
            <mxPoint x="1440" y="1176" as="sourcePoint" />
            <mxPoint x="1270" y="354" as="targetPoint" />
          </mxGeometry>
        </mxCell>
        <mxCell id="3_I5SoKO1ajLQpSbr8QC-146" value="" style="endArrow=none;html=1;rounded=0;entryX=0;entryY=0.5;entryDx=0;entryDy=0;exitX=1;exitY=0.5;exitDx=0;exitDy=0;" parent="WIyWlLk6GJQsqaUBKTNV-1" source="3_I5SoKO1ajLQpSbr8QC-143" target="3_I5SoKO1ajLQpSbr8QC-78" edge="1">
          <mxGeometry width="50" height="50" relative="1" as="geometry">
            <mxPoint x="1802" y="1160" as="sourcePoint" />
            <mxPoint x="2274" y="364" as="targetPoint" />
          </mxGeometry>
        </mxCell>
        <mxCell id="3_I5SoKO1ajLQpSbr8QC-147" value="&lt;font style=&quot;font-size: 36px;&quot;&gt;SỐ NGÀY NGHỈ&lt;/font&gt;" style="ellipse;whiteSpace=wrap;html=1;align=center;dashed=1;" parent="WIyWlLk6GJQsqaUBKTNV-1" vertex="1">
          <mxGeometry x="1230" y="1250" width="300" height="120" as="geometry" />
        </mxCell>
        <mxCell id="3_I5SoKO1ajLQpSbr8QC-148" value="" style="endArrow=none;html=1;rounded=0;exitX=1;exitY=0;exitDx=0;exitDy=0;entryX=0;entryY=1;entryDx=0;entryDy=0;" parent="WIyWlLk6GJQsqaUBKTNV-1" source="3_I5SoKO1ajLQpSbr8QC-147" target="3_I5SoKO1ajLQpSbr8QC-143" edge="1">
          <mxGeometry relative="1" as="geometry">
            <mxPoint x="1640" y="1190" as="sourcePoint" />
            <mxPoint x="1800" y="1190" as="targetPoint" />
          </mxGeometry>
        </mxCell>
        <mxCell id="shMjv0mOl_azaOuttDhN-0" value="TimeSprint" style="ellipse;whiteSpace=wrap;html=1;fontSize=40;dashed=1;" parent="WIyWlLk6GJQsqaUBKTNV-1" vertex="1">
          <mxGeometry x="1500" y="1360" width="300" height="115.5" as="geometry" />
        </mxCell>
        <mxCell id="shMjv0mOl_azaOuttDhN-1" value="" style="endArrow=none;html=1;rounded=0;fontSize=20;entryX=0.5;entryY=1;entryDx=0;entryDy=0;" parent="WIyWlLk6GJQsqaUBKTNV-1" source="shMjv0mOl_azaOuttDhN-0" target="3_I5SoKO1ajLQpSbr8QC-143" edge="1">
          <mxGeometry width="50" height="50" relative="1" as="geometry">
            <mxPoint x="1980" y="1050" as="sourcePoint" />
            <mxPoint x="2030" y="1000" as="targetPoint" />
          </mxGeometry>
        </mxCell>
        <mxCell id="Eqkc9Hcqi_a9w9sAyOXS-0" value="TimeTask" style="ellipse;whiteSpace=wrap;html=1;dashed=1;fontSize=40;" parent="WIyWlLk6GJQsqaUBKTNV-1" vertex="1">
          <mxGeometry x="1870" y="1390" width="290" height="104.5" as="geometry" />
        </mxCell>
        <mxCell id="Eqkc9Hcqi_a9w9sAyOXS-1" value="" style="endArrow=none;html=1;rounded=0;fontSize=40;exitX=0.5;exitY=0;exitDx=0;exitDy=0;entryX=1;entryY=1;entryDx=0;entryDy=0;" parent="WIyWlLk6GJQsqaUBKTNV-1" source="Eqkc9Hcqi_a9w9sAyOXS-0" target="3_I5SoKO1ajLQpSbr8QC-143" edge="1">
          <mxGeometry width="50" height="50" relative="1" as="geometry">
            <mxPoint x="1730" y="1090" as="sourcePoint" />
            <mxPoint x="1780" y="1040" as="targetPoint" />
          </mxGeometry>
        </mxCell>
      </root>
    </mxGraphModel>
  </diagram>
  <diagram id="Gy5e6U_plVm-h1LxpvRB" name="Các Tập Thực Thể">
    <mxGraphModel dx="5954" dy="3524" grid="1" gridSize="10" guides="1" tooltips="1" connect="1" arrows="1" fold="1" page="1" pageScale="1" pageWidth="850" pageHeight="1100" math="0" shadow="0">
      <root>
        <mxCell id="0" />
        <mxCell id="1" parent="0" />
        <mxCell id="KAbs0ScCrpqB8FkGLiWp-1" value="&lt;font style=&quot;font-size: 48px;&quot;&gt;TÀI KHOẢN&lt;/font&gt;" style="rounded=0;whiteSpace=wrap;html=1;" parent="1" vertex="1">
          <mxGeometry x="-166" y="225" width="310" height="145" as="geometry" />
        </mxCell>
        <mxCell id="KAbs0ScCrpqB8FkGLiWp-2" value="&lt;font style=&quot;font-size: 36px;&quot;&gt;USERNAME&lt;/font&gt;" style="ellipse;whiteSpace=wrap;html=1;fontStyle=4" parent="1" vertex="1">
          <mxGeometry x="-650" y="110" width="340" height="175" as="geometry" />
        </mxCell>
        <mxCell id="KAbs0ScCrpqB8FkGLiWp-3" value="&lt;font style=&quot;font-size: 36px;&quot;&gt;PASSWORD&lt;/font&gt;" style="ellipse;whiteSpace=wrap;html=1;" parent="1" vertex="1">
          <mxGeometry x="-410" y="-40" width="341" height="170" as="geometry" />
        </mxCell>
        <mxCell id="KAbs0ScCrpqB8FkGLiWp-4" value="" style="endArrow=none;html=1;rounded=0;exitX=0.25;exitY=0;exitDx=0;exitDy=0;entryX=1;entryY=1;entryDx=0;entryDy=0;" parent="1" source="KAbs0ScCrpqB8FkGLiWp-1" target="KAbs0ScCrpqB8FkGLiWp-2" edge="1">
          <mxGeometry width="50" height="50" relative="1" as="geometry">
            <mxPoint x="150" y="390" as="sourcePoint" />
            <mxPoint x="200" y="340" as="targetPoint" />
          </mxGeometry>
        </mxCell>
        <mxCell id="KAbs0ScCrpqB8FkGLiWp-5" value="" style="endArrow=none;html=1;rounded=0;exitX=0.25;exitY=0;exitDx=0;exitDy=0;entryX=0.5;entryY=1;entryDx=0;entryDy=0;" parent="1" source="KAbs0ScCrpqB8FkGLiWp-1" target="KAbs0ScCrpqB8FkGLiWp-3" edge="1">
          <mxGeometry width="50" height="50" relative="1" as="geometry">
            <mxPoint x="-180" y="260" as="sourcePoint" />
            <mxPoint x="-258" y="188" as="targetPoint" />
          </mxGeometry>
        </mxCell>
        <mxCell id="KAbs0ScCrpqB8FkGLiWp-6" value="&lt;font style=&quot;font-size: 48px;&quot;&gt;NHÂN VIÊN&lt;/font&gt;" style="rounded=0;whiteSpace=wrap;html=1;" parent="1" vertex="1">
          <mxGeometry x="786" y="228" width="310" height="140" as="geometry" />
        </mxCell>
        <mxCell id="KAbs0ScCrpqB8FkGLiWp-7" value="&lt;u&gt;&lt;font style=&quot;font-size: 36px;&quot;&gt;MÃ NHÂN VIÊN&lt;/font&gt;&lt;/u&gt;" style="ellipse;whiteSpace=wrap;html=1;" parent="1" vertex="1">
          <mxGeometry x="416" y="38" width="310" height="140" as="geometry" />
        </mxCell>
        <mxCell id="KAbs0ScCrpqB8FkGLiWp-8" value="&lt;font style=&quot;font-size: 36px;&quot;&gt;(TÊN NHÂN VIÊN)&lt;/font&gt;" style="ellipse;whiteSpace=wrap;html=1;" parent="1" vertex="1">
          <mxGeometry x="516" y="-142" width="332" height="140" as="geometry" />
        </mxCell>
        <mxCell id="KAbs0ScCrpqB8FkGLiWp-9" value="&lt;font style=&quot;font-size: 36px;&quot;&gt;HỌ VÀ TÊN ĐỆM&lt;/font&gt;" style="ellipse;whiteSpace=wrap;html=1;" parent="1" vertex="1">
          <mxGeometry x="190" y="-252" width="340" height="150" as="geometry" />
        </mxCell>
        <mxCell id="KAbs0ScCrpqB8FkGLiWp-10" value="&lt;font style=&quot;font-size: 36px;&quot;&gt;TÊN&lt;/font&gt;" style="ellipse;whiteSpace=wrap;html=1;" parent="1" vertex="1">
          <mxGeometry x="426" y="-392" width="347" height="120" as="geometry" />
        </mxCell>
        <mxCell id="KAbs0ScCrpqB8FkGLiWp-11" value="&lt;span style=&quot;font-size: 36px;&quot;&gt;EMAIL&lt;/span&gt;" style="ellipse;whiteSpace=wrap;html=1;" parent="1" vertex="1">
          <mxGeometry x="736" y="-292" width="323" height="130" as="geometry" />
        </mxCell>
        <mxCell id="KAbs0ScCrpqB8FkGLiWp-12" value="&lt;font style=&quot;font-size: 36px;&quot;&gt;LEVEL&lt;/font&gt;" style="ellipse;whiteSpace=wrap;html=1;" parent="1" vertex="1">
          <mxGeometry x="1016" y="-192" width="300" height="120" as="geometry" />
        </mxCell>
        <mxCell id="KAbs0ScCrpqB8FkGLiWp-13" value="&lt;font style=&quot;font-size: 36px;&quot;&gt;ĐỊA CHỈ&lt;/font&gt;" style="ellipse;whiteSpace=wrap;html=1;" parent="1" vertex="1">
          <mxGeometry x="1166" y="-32" width="310" height="120" as="geometry" />
        </mxCell>
        <mxCell id="KAbs0ScCrpqB8FkGLiWp-14" value="&lt;font style=&quot;font-size: 36px;&quot;&gt;SĐT&lt;/font&gt;" style="ellipse;whiteSpace=wrap;html=1;" parent="1" vertex="1">
          <mxGeometry x="1246" y="123" width="300" height="120" as="geometry" />
        </mxCell>
        <mxCell id="KAbs0ScCrpqB8FkGLiWp-15" value="" style="endArrow=none;html=1;rounded=0;entryX=0.5;entryY=0;entryDx=0;entryDy=0;exitX=1;exitY=1;exitDx=0;exitDy=0;" parent="1" source="KAbs0ScCrpqB8FkGLiWp-7" target="KAbs0ScCrpqB8FkGLiWp-6" edge="1">
          <mxGeometry width="50" height="50" relative="1" as="geometry">
            <mxPoint x="506" y="-2" as="sourcePoint" />
            <mxPoint x="556" y="-52" as="targetPoint" />
          </mxGeometry>
        </mxCell>
        <mxCell id="KAbs0ScCrpqB8FkGLiWp-16" value="" style="endArrow=none;html=1;rounded=0;exitX=1;exitY=1;exitDx=0;exitDy=0;entryX=0.5;entryY=0;entryDx=0;entryDy=0;" parent="1" source="KAbs0ScCrpqB8FkGLiWp-8" target="KAbs0ScCrpqB8FkGLiWp-6" edge="1">
          <mxGeometry width="50" height="50" relative="1" as="geometry">
            <mxPoint x="238" y="216" as="sourcePoint" />
            <mxPoint x="466" y="208" as="targetPoint" />
          </mxGeometry>
        </mxCell>
        <mxCell id="KAbs0ScCrpqB8FkGLiWp-17" value="" style="endArrow=none;html=1;rounded=0;exitX=1;exitY=1;exitDx=0;exitDy=0;entryX=0;entryY=0;entryDx=0;entryDy=0;" parent="1" source="KAbs0ScCrpqB8FkGLiWp-9" target="KAbs0ScCrpqB8FkGLiWp-8" edge="1">
          <mxGeometry width="50" height="50" relative="1" as="geometry">
            <mxPoint x="358" y="136" as="sourcePoint" />
            <mxPoint x="466" y="248" as="targetPoint" />
          </mxGeometry>
        </mxCell>
        <mxCell id="KAbs0ScCrpqB8FkGLiWp-18" value="" style="endArrow=none;html=1;rounded=0;exitX=0.5;exitY=1;exitDx=0;exitDy=0;entryX=0.5;entryY=0;entryDx=0;entryDy=0;" parent="1" source="KAbs0ScCrpqB8FkGLiWp-10" target="KAbs0ScCrpqB8FkGLiWp-8" edge="1">
          <mxGeometry width="50" height="50" relative="1" as="geometry">
            <mxPoint x="368" y="146" as="sourcePoint" />
            <mxPoint x="476" y="258" as="targetPoint" />
          </mxGeometry>
        </mxCell>
        <mxCell id="KAbs0ScCrpqB8FkGLiWp-19" value="" style="endArrow=none;html=1;rounded=0;exitX=0.5;exitY=1;exitDx=0;exitDy=0;entryX=0.5;entryY=0;entryDx=0;entryDy=0;" parent="1" source="KAbs0ScCrpqB8FkGLiWp-11" target="KAbs0ScCrpqB8FkGLiWp-6" edge="1">
          <mxGeometry width="50" height="50" relative="1" as="geometry">
            <mxPoint x="378" y="156" as="sourcePoint" />
            <mxPoint x="426" y="138" as="targetPoint" />
          </mxGeometry>
        </mxCell>
        <mxCell id="KAbs0ScCrpqB8FkGLiWp-20" value="" style="endArrow=none;html=1;rounded=0;exitX=0.5;exitY=1;exitDx=0;exitDy=0;entryX=0.5;entryY=0;entryDx=0;entryDy=0;" parent="1" source="KAbs0ScCrpqB8FkGLiWp-12" target="KAbs0ScCrpqB8FkGLiWp-6" edge="1">
          <mxGeometry width="50" height="50" relative="1" as="geometry">
            <mxPoint x="388" y="166" as="sourcePoint" />
            <mxPoint x="496" y="278" as="targetPoint" />
          </mxGeometry>
        </mxCell>
        <mxCell id="KAbs0ScCrpqB8FkGLiWp-21" value="" style="endArrow=none;html=1;rounded=0;exitX=0;exitY=1;exitDx=0;exitDy=0;entryX=0.5;entryY=0;entryDx=0;entryDy=0;" parent="1" source="KAbs0ScCrpqB8FkGLiWp-13" target="KAbs0ScCrpqB8FkGLiWp-6" edge="1">
          <mxGeometry width="50" height="50" relative="1" as="geometry">
            <mxPoint x="398" y="176" as="sourcePoint" />
            <mxPoint x="506" y="288" as="targetPoint" />
          </mxGeometry>
        </mxCell>
        <mxCell id="KAbs0ScCrpqB8FkGLiWp-22" value="" style="endArrow=none;html=1;rounded=0;exitX=0;exitY=0.5;exitDx=0;exitDy=0;entryX=0.5;entryY=0;entryDx=0;entryDy=0;" parent="1" source="KAbs0ScCrpqB8FkGLiWp-14" target="KAbs0ScCrpqB8FkGLiWp-6" edge="1">
          <mxGeometry width="50" height="50" relative="1" as="geometry">
            <mxPoint x="408" y="186" as="sourcePoint" />
            <mxPoint x="516" y="298" as="targetPoint" />
          </mxGeometry>
        </mxCell>
        <mxCell id="KAbs0ScCrpqB8FkGLiWp-23" value="" style="group" parent="1" vertex="1" connectable="0">
          <mxGeometry x="798" y="1121" width="290" height="170" as="geometry" />
        </mxCell>
        <mxCell id="KAbs0ScCrpqB8FkGLiWp-24" value="&lt;font style=&quot;font-size: 48px;&quot;&gt;NHIỆM VỤ&lt;/font&gt;" style="rounded=0;whiteSpace=wrap;html=1;movable=1;resizable=1;rotatable=1;deletable=1;editable=1;locked=0;connectable=1;" parent="KAbs0ScCrpqB8FkGLiWp-23" vertex="1">
          <mxGeometry width="290" height="170" as="geometry" />
        </mxCell>
        <mxCell id="KAbs0ScCrpqB8FkGLiWp-25" value="&lt;font style=&quot;font-size: 36px;&quot;&gt;CV TIÊN QUYẾT&lt;/font&gt;" style="ellipse;whiteSpace=wrap;html=1;rounded=0;strokeColor=default;fontFamily=Helvetica;fontSize=12;fontColor=default;fillColor=default;" parent="1" vertex="1">
          <mxGeometry x="960" y="1700" width="350" height="190" as="geometry" />
        </mxCell>
        <mxCell id="KAbs0ScCrpqB8FkGLiWp-26" value="&lt;font style=&quot;font-size: 36px;&quot;&gt;TRẠNG THÁI&lt;/font&gt;" style="ellipse;whiteSpace=wrap;html=1;rounded=0;strokeColor=default;fontFamily=Helvetica;fontSize=12;fontColor=default;fillColor=default;" parent="1" vertex="1">
          <mxGeometry x="490" y="1690" width="358" height="190" as="geometry" />
        </mxCell>
        <mxCell id="KAbs0ScCrpqB8FkGLiWp-27" value="&lt;font style=&quot;font-size: 36px;&quot;&gt;MA NHIEM VU&lt;/font&gt;" style="ellipse;whiteSpace=wrap;html=1;rounded=0;strokeColor=default;fontFamily=Helvetica;fontSize=12;fontColor=default;fillColor=default;" parent="1" vertex="1">
          <mxGeometry x="1270" y="1319" width="341" height="161" as="geometry" />
        </mxCell>
        <mxCell id="KAbs0ScCrpqB8FkGLiWp-28" value="&lt;span style=&quot;font-size: 36px;&quot;&gt;THỜI GIAN ƯỚC TÍNH (HRS)&lt;/span&gt;" style="ellipse;whiteSpace=wrap;html=1;rounded=0;strokeColor=default;fontFamily=Helvetica;fontSize=12;fontColor=default;fillColor=default;" parent="1" vertex="1">
          <mxGeometry x="130" y="1230" width="410" height="200" as="geometry" />
        </mxCell>
        <mxCell id="KAbs0ScCrpqB8FkGLiWp-29" value="&lt;span style=&quot;font-size: 36px;&quot;&gt;THỜI GIAN LÀM THỰC TẾ (HRS)&lt;/span&gt;" style="ellipse;whiteSpace=wrap;html=1;rounded=0;strokeColor=default;fontFamily=Helvetica;fontSize=12;fontColor=default;fillColor=default;" parent="1" vertex="1">
          <mxGeometry x="200" y="1470" width="420" height="210" as="geometry" />
        </mxCell>
        <mxCell id="KAbs0ScCrpqB8FkGLiWp-30" value="" style="endArrow=none;html=1;rounded=0;fontFamily=Helvetica;fontSize=12;fontColor=default;entryX=0.75;entryY=1;entryDx=0;entryDy=0;exitX=0;exitY=0;exitDx=0;exitDy=0;" parent="1" source="KAbs0ScCrpqB8FkGLiWp-81" target="KAbs0ScCrpqB8FkGLiWp-24" edge="1">
          <mxGeometry width="50" height="50" relative="1" as="geometry">
            <mxPoint x="599" y="1170" as="sourcePoint" />
            <mxPoint x="966.5" y="1339.999999999999" as="targetPoint" />
          </mxGeometry>
        </mxCell>
        <mxCell id="KAbs0ScCrpqB8FkGLiWp-31" value="" style="endArrow=none;html=1;rounded=0;fontFamily=Helvetica;fontSize=12;fontColor=default;entryX=0.5;entryY=1;entryDx=0;entryDy=0;exitX=0;exitY=0;exitDx=0;exitDy=0;" parent="1" source="KAbs0ScCrpqB8FkGLiWp-25" target="KAbs0ScCrpqB8FkGLiWp-24" edge="1">
          <mxGeometry width="50" height="50" relative="1" as="geometry">
            <mxPoint x="641" y="1342" as="sourcePoint" />
            <mxPoint x="894" y="1339.999999999999" as="targetPoint" />
          </mxGeometry>
        </mxCell>
        <mxCell id="KAbs0ScCrpqB8FkGLiWp-32" value="" style="endArrow=none;html=1;rounded=0;fontFamily=Helvetica;fontSize=12;fontColor=default;entryX=1;entryY=1;entryDx=0;entryDy=0;exitX=0;exitY=0;exitDx=0;exitDy=0;" parent="1" source="KAbs0ScCrpqB8FkGLiWp-27" target="KAbs0ScCrpqB8FkGLiWp-24" edge="1">
          <mxGeometry width="50" height="50" relative="1" as="geometry">
            <mxPoint x="651" y="1352" as="sourcePoint" />
            <mxPoint x="1039" y="1339.999999999999" as="targetPoint" />
          </mxGeometry>
        </mxCell>
        <mxCell id="KAbs0ScCrpqB8FkGLiWp-33" value="" style="endArrow=none;html=1;rounded=0;fontFamily=Helvetica;fontSize=12;fontColor=default;entryX=0.25;entryY=1;entryDx=0;entryDy=0;exitX=1;exitY=0.5;exitDx=0;exitDy=0;" parent="1" source="KAbs0ScCrpqB8FkGLiWp-29" target="KAbs0ScCrpqB8FkGLiWp-24" edge="1">
          <mxGeometry width="50" height="50" relative="1" as="geometry">
            <mxPoint x="487" y="1793" as="sourcePoint" />
            <mxPoint x="749" y="1339.999999999999" as="targetPoint" />
          </mxGeometry>
        </mxCell>
        <mxCell id="KAbs0ScCrpqB8FkGLiWp-34" value="" style="endArrow=none;html=1;rounded=0;fontFamily=Helvetica;fontSize=12;fontColor=default;entryX=1;entryY=0.5;entryDx=0;entryDy=0;exitX=0;exitY=1;exitDx=0;exitDy=0;" parent="1" source="KAbs0ScCrpqB8FkGLiWp-24" target="KAbs0ScCrpqB8FkGLiWp-28" edge="1">
          <mxGeometry width="50" height="50" relative="1" as="geometry">
            <mxPoint x="749" y="1297.499999999999" as="sourcePoint" />
            <mxPoint x="625" y="1680" as="targetPoint" />
          </mxGeometry>
        </mxCell>
        <mxCell id="KAbs0ScCrpqB8FkGLiWp-35" value="" style="endArrow=none;html=1;rounded=0;fontFamily=Helvetica;fontSize=12;fontColor=default;entryX=0.5;entryY=1;entryDx=0;entryDy=0;exitX=1;exitY=0;exitDx=0;exitDy=0;" parent="1" source="KAbs0ScCrpqB8FkGLiWp-26" target="KAbs0ScCrpqB8FkGLiWp-24" edge="1">
          <mxGeometry width="50" height="50" relative="1" as="geometry">
            <mxPoint x="681" y="1382" as="sourcePoint" />
            <mxPoint x="821.5" y="1339.999999999999" as="targetPoint" />
          </mxGeometry>
        </mxCell>
        <mxCell id="KAbs0ScCrpqB8FkGLiWp-36" value="&lt;font style=&quot;font-size: 48px;&quot;&gt;DỰ ÁN&lt;/font&gt;" style="rounded=0;whiteSpace=wrap;html=1;" parent="1" vertex="1">
          <mxGeometry x="2194" y="210" width="280" height="150" as="geometry" />
        </mxCell>
        <mxCell id="KAbs0ScCrpqB8FkGLiWp-37" value="&lt;u&gt;&lt;font style=&quot;font-size: 36px;&quot;&gt;MÃ DỰ ÁN&lt;/font&gt;&lt;/u&gt;" style="ellipse;whiteSpace=wrap;html=1;" parent="1" vertex="1">
          <mxGeometry x="1774" y="101" width="310" height="130" as="geometry" />
        </mxCell>
        <mxCell id="KAbs0ScCrpqB8FkGLiWp-38" value="&lt;font style=&quot;font-size: 36px;&quot;&gt;(THỜI GIAN)&lt;/font&gt;" style="ellipse;whiteSpace=wrap;html=1;" parent="1" vertex="1">
          <mxGeometry x="1995" y="-234" width="300" height="120" as="geometry" />
        </mxCell>
        <mxCell id="KAbs0ScCrpqB8FkGLiWp-39" value="&lt;font style=&quot;font-size: 36px;&quot;&gt;NGÀY BĐ&lt;/font&gt;" style="ellipse;whiteSpace=wrap;html=1;" parent="1" vertex="1">
          <mxGeometry x="1664" y="-389" width="340" height="155" as="geometry" />
        </mxCell>
        <mxCell id="KAbs0ScCrpqB8FkGLiWp-40" value="&lt;font style=&quot;font-size: 36px;&quot;&gt;NGÀY KT&lt;/font&gt;" style="ellipse;whiteSpace=wrap;html=1;" parent="1" vertex="1">
          <mxGeometry x="2054" y="-444" width="320" height="140" as="geometry" />
        </mxCell>
        <mxCell id="KAbs0ScCrpqB8FkGLiWp-41" value="&lt;font style=&quot;font-size: 36px;&quot;&gt;TÊN DỰ ÁN&lt;/font&gt;" style="ellipse;whiteSpace=wrap;html=1;" parent="1" vertex="1">
          <mxGeometry x="1844" y="-74" width="310" height="130" as="geometry" />
        </mxCell>
        <mxCell id="KAbs0ScCrpqB8FkGLiWp-42" value="&lt;font style=&quot;font-size: 36px;&quot;&gt;CHI PHÍ&lt;/font&gt;" style="ellipse;whiteSpace=wrap;html=1;" parent="1" vertex="1">
          <mxGeometry x="2334" y="-240" width="300" height="120" as="geometry" />
        </mxCell>
        <mxCell id="KAbs0ScCrpqB8FkGLiWp-43" value="&lt;font style=&quot;font-size: 36px;&quot;&gt;TIẾN ĐỘ&lt;/font&gt;" style="ellipse;whiteSpace=wrap;html=1;" parent="1" vertex="1">
          <mxGeometry x="2444" y="-74" width="320" height="130" as="geometry" />
        </mxCell>
        <mxCell id="KAbs0ScCrpqB8FkGLiWp-44" value="&lt;font style=&quot;font-size: 36px;&quot;&gt;GIAI ĐOẠN&lt;/font&gt;" style="ellipse;whiteSpace=wrap;html=1;" parent="1" vertex="1">
          <mxGeometry x="2544" y="80" width="302" height="130" as="geometry" />
        </mxCell>
        <mxCell id="KAbs0ScCrpqB8FkGLiWp-45" value="" style="endArrow=none;html=1;rounded=0;entryX=0.5;entryY=0;entryDx=0;entryDy=0;exitX=1;exitY=1;exitDx=0;exitDy=0;" parent="1" source="KAbs0ScCrpqB8FkGLiWp-37" target="KAbs0ScCrpqB8FkGLiWp-36" edge="1">
          <mxGeometry width="50" height="50" relative="1" as="geometry">
            <mxPoint x="1794" y="20" as="sourcePoint" />
            <mxPoint x="1844" y="-30" as="targetPoint" />
          </mxGeometry>
        </mxCell>
        <mxCell id="KAbs0ScCrpqB8FkGLiWp-46" value="" style="endArrow=none;html=1;rounded=0;exitX=0.5;exitY=1;exitDx=0;exitDy=0;entryX=0.5;entryY=0;entryDx=0;entryDy=0;" parent="1" source="KAbs0ScCrpqB8FkGLiWp-38" target="KAbs0ScCrpqB8FkGLiWp-36" edge="1">
          <mxGeometry width="50" height="50" relative="1" as="geometry">
            <mxPoint x="1526" y="238" as="sourcePoint" />
            <mxPoint x="1754" y="230" as="targetPoint" />
          </mxGeometry>
        </mxCell>
        <mxCell id="KAbs0ScCrpqB8FkGLiWp-47" value="" style="endArrow=none;html=1;rounded=0;exitX=1;exitY=1;exitDx=0;exitDy=0;entryX=0;entryY=0;entryDx=0;entryDy=0;" parent="1" source="KAbs0ScCrpqB8FkGLiWp-39" target="KAbs0ScCrpqB8FkGLiWp-38" edge="1">
          <mxGeometry width="50" height="50" relative="1" as="geometry">
            <mxPoint x="1646" y="158" as="sourcePoint" />
            <mxPoint x="1754" y="270" as="targetPoint" />
          </mxGeometry>
        </mxCell>
        <mxCell id="KAbs0ScCrpqB8FkGLiWp-48" value="" style="endArrow=none;html=1;rounded=0;exitX=0.5;exitY=1;exitDx=0;exitDy=0;entryX=0.5;entryY=0;entryDx=0;entryDy=0;" parent="1" source="KAbs0ScCrpqB8FkGLiWp-40" target="KAbs0ScCrpqB8FkGLiWp-38" edge="1">
          <mxGeometry width="50" height="50" relative="1" as="geometry">
            <mxPoint x="1656" y="168" as="sourcePoint" />
            <mxPoint x="1764" y="280" as="targetPoint" />
          </mxGeometry>
        </mxCell>
        <mxCell id="KAbs0ScCrpqB8FkGLiWp-49" value="" style="endArrow=none;html=1;rounded=0;exitX=1;exitY=1;exitDx=0;exitDy=0;entryX=0.5;entryY=0;entryDx=0;entryDy=0;" parent="1" source="KAbs0ScCrpqB8FkGLiWp-41" target="KAbs0ScCrpqB8FkGLiWp-36" edge="1">
          <mxGeometry width="50" height="50" relative="1" as="geometry">
            <mxPoint x="1666" y="178" as="sourcePoint" />
            <mxPoint x="1714" y="160" as="targetPoint" />
          </mxGeometry>
        </mxCell>
        <mxCell id="KAbs0ScCrpqB8FkGLiWp-50" value="" style="endArrow=none;html=1;rounded=0;exitX=0.5;exitY=1;exitDx=0;exitDy=0;entryX=0.5;entryY=0;entryDx=0;entryDy=0;" parent="1" source="KAbs0ScCrpqB8FkGLiWp-42" target="KAbs0ScCrpqB8FkGLiWp-36" edge="1">
          <mxGeometry width="50" height="50" relative="1" as="geometry">
            <mxPoint x="1676" y="188" as="sourcePoint" />
            <mxPoint x="1784" y="300" as="targetPoint" />
          </mxGeometry>
        </mxCell>
        <mxCell id="KAbs0ScCrpqB8FkGLiWp-51" value="" style="endArrow=none;html=1;rounded=0;exitX=0;exitY=1;exitDx=0;exitDy=0;entryX=0.5;entryY=0;entryDx=0;entryDy=0;" parent="1" source="KAbs0ScCrpqB8FkGLiWp-43" target="KAbs0ScCrpqB8FkGLiWp-36" edge="1">
          <mxGeometry width="50" height="50" relative="1" as="geometry">
            <mxPoint x="1686" y="198" as="sourcePoint" />
            <mxPoint x="1794" y="310" as="targetPoint" />
          </mxGeometry>
        </mxCell>
        <mxCell id="KAbs0ScCrpqB8FkGLiWp-52" value="" style="endArrow=none;html=1;rounded=0;exitX=0;exitY=0.5;exitDx=0;exitDy=0;entryX=0.5;entryY=0;entryDx=0;entryDy=0;" parent="1" source="KAbs0ScCrpqB8FkGLiWp-44" target="KAbs0ScCrpqB8FkGLiWp-36" edge="1">
          <mxGeometry width="50" height="50" relative="1" as="geometry">
            <mxPoint x="1696" y="208" as="sourcePoint" />
            <mxPoint x="1804" y="320" as="targetPoint" />
          </mxGeometry>
        </mxCell>
        <mxCell id="KAbs0ScCrpqB8FkGLiWp-53" value="" style="endArrow=none;html=1;rounded=0;entryX=0;entryY=0.5;entryDx=0;entryDy=0;exitX=1;exitY=0.5;exitDx=0;exitDy=0;" parent="1" source="KAbs0ScCrpqB8FkGLiWp-55" target="KAbs0ScCrpqB8FkGLiWp-96" edge="1">
          <mxGeometry width="50" height="50" relative="1" as="geometry">
            <mxPoint x="2564" y="594" as="sourcePoint" />
            <mxPoint x="2261" y="642" as="targetPoint" />
          </mxGeometry>
        </mxCell>
        <mxCell id="KAbs0ScCrpqB8FkGLiWp-54" value="" style="group;rounded=0;strokeColor=default;fontFamily=Helvetica;fontSize=12;fontColor=default;fillColor=default;html=1;" parent="1" vertex="1" connectable="0">
          <mxGeometry x="2194" y="614" width="280" height="180" as="geometry" />
        </mxCell>
        <mxCell id="KAbs0ScCrpqB8FkGLiWp-55" value="&lt;font style=&quot;font-size: 48px;&quot;&gt;TEAM&lt;/font&gt;" style="rounded=0;whiteSpace=wrap;html=1;movable=1;resizable=1;rotatable=1;deletable=1;editable=1;locked=0;connectable=1;strokeColor=default;fontFamily=Helvetica;fontSize=12;fontColor=default;fillColor=default;" parent="KAbs0ScCrpqB8FkGLiWp-54" vertex="1">
          <mxGeometry x="10" y="10" width="256" height="153.63" as="geometry" />
        </mxCell>
        <mxCell id="KAbs0ScCrpqB8FkGLiWp-56" value="&lt;span style=&quot;font-size: 48px;&quot;&gt;CÔNG VIỆC&lt;/span&gt;" style="rounded=0;whiteSpace=wrap;html=1;" parent="1" vertex="1">
          <mxGeometry x="2170" y="1121" width="325" height="160" as="geometry" />
        </mxCell>
        <mxCell id="KAbs0ScCrpqB8FkGLiWp-57" value="&lt;font style=&quot;font-size: 36px;&quot;&gt;TRẠNG THÁI&lt;/font&gt;" style="ellipse;whiteSpace=wrap;html=1;" parent="1" vertex="1">
          <mxGeometry x="2520" y="1530" width="278" height="160" as="geometry" />
        </mxCell>
        <mxCell id="KAbs0ScCrpqB8FkGLiWp-58" value="&lt;font style=&quot;font-size: 36px;&quot;&gt;CV TIÊN QUYẾT&lt;/font&gt;" style="ellipse;whiteSpace=wrap;html=1;" parent="1" vertex="1">
          <mxGeometry x="2196" y="1591" width="285" height="160" as="geometry" />
        </mxCell>
        <mxCell id="KAbs0ScCrpqB8FkGLiWp-59" value="&lt;u&gt;&lt;font style=&quot;font-size: 36px;&quot;&gt;MÃ CÔNG VIỆC&lt;/font&gt;&lt;/u&gt;" style="ellipse;whiteSpace=wrap;html=1;" parent="1" vertex="1">
          <mxGeometry x="1695" y="1290" width="300" height="160" as="geometry" />
        </mxCell>
        <mxCell id="KAbs0ScCrpqB8FkGLiWp-60" value="&lt;font style=&quot;font-size: 36px;&quot;&gt;TÊN CÔNG VIỆC&lt;/font&gt;" style="ellipse;whiteSpace=wrap;html=1;" parent="1" vertex="1">
          <mxGeometry x="1900" y="1490" width="310" height="170" as="geometry" />
        </mxCell>
        <mxCell id="KAbs0ScCrpqB8FkGLiWp-61" value="" style="endArrow=none;html=1;rounded=0;entryX=0.75;entryY=1;entryDx=0;entryDy=0;exitX=0;exitY=0;exitDx=0;exitDy=0;" parent="1" source="KAbs0ScCrpqB8FkGLiWp-57" target="KAbs0ScCrpqB8FkGLiWp-56" edge="1">
          <mxGeometry width="50" height="50" relative="1" as="geometry">
            <mxPoint x="2497.5" y="996" as="sourcePoint" />
            <mxPoint x="2547.5" y="946" as="targetPoint" />
          </mxGeometry>
        </mxCell>
        <mxCell id="KAbs0ScCrpqB8FkGLiWp-62" value="" style="endArrow=none;html=1;rounded=0;exitX=0.5;exitY=0;exitDx=0;exitDy=0;entryX=0.5;entryY=1;entryDx=0;entryDy=0;" parent="1" source="KAbs0ScCrpqB8FkGLiWp-58" target="KAbs0ScCrpqB8FkGLiWp-56" edge="1">
          <mxGeometry width="50" height="50" relative="1" as="geometry">
            <mxPoint x="2369.5" y="1154" as="sourcePoint" />
            <mxPoint x="2417.5" y="1136" as="targetPoint" />
          </mxGeometry>
        </mxCell>
        <mxCell id="KAbs0ScCrpqB8FkGLiWp-63" value="" style="endArrow=none;html=1;rounded=0;exitX=1;exitY=0;exitDx=0;exitDy=0;entryX=0;entryY=1;entryDx=0;entryDy=0;" parent="1" source="KAbs0ScCrpqB8FkGLiWp-59" target="KAbs0ScCrpqB8FkGLiWp-56" edge="1">
          <mxGeometry width="50" height="50" relative="1" as="geometry">
            <mxPoint x="2389.5" y="1174" as="sourcePoint" />
            <mxPoint x="2497.5" y="1286" as="targetPoint" />
          </mxGeometry>
        </mxCell>
        <mxCell id="KAbs0ScCrpqB8FkGLiWp-64" value="" style="endArrow=none;html=1;rounded=0;exitX=0.5;exitY=0;exitDx=0;exitDy=0;entryX=0.25;entryY=1;entryDx=0;entryDy=0;" parent="1" source="KAbs0ScCrpqB8FkGLiWp-60" target="KAbs0ScCrpqB8FkGLiWp-56" edge="1">
          <mxGeometry width="50" height="50" relative="1" as="geometry">
            <mxPoint x="2399.5" y="1184" as="sourcePoint" />
            <mxPoint x="2507.5" y="1296" as="targetPoint" />
          </mxGeometry>
        </mxCell>
        <mxCell id="KAbs0ScCrpqB8FkGLiWp-65" value="&lt;font style=&quot;font-size: 48px;&quot;&gt;TÀI NGUYÊN&lt;/font&gt;" style="rounded=0;whiteSpace=wrap;html=1;" parent="1" vertex="1">
          <mxGeometry x="2920" y="198" width="380" height="170" as="geometry" />
        </mxCell>
        <mxCell id="KAbs0ScCrpqB8FkGLiWp-66" value="&lt;u&gt;&lt;font style=&quot;font-size: 36px;&quot;&gt;MÃ TÀI NGUYÊN&lt;/font&gt;&lt;/u&gt;" style="ellipse;whiteSpace=wrap;html=1;" parent="1" vertex="1">
          <mxGeometry x="3400" y="-170" width="370" height="140" as="geometry" />
        </mxCell>
        <mxCell id="KAbs0ScCrpqB8FkGLiWp-67" value="&lt;font style=&quot;font-size: 36px;&quot;&gt;TÊN TÀI NGUYÊN&lt;/font&gt;" style="ellipse;whiteSpace=wrap;html=1;" parent="1" vertex="1">
          <mxGeometry x="3600" y="10" width="420" height="140" as="geometry" />
        </mxCell>
        <mxCell id="KAbs0ScCrpqB8FkGLiWp-68" value="&lt;font style=&quot;font-size: 36px;&quot;&gt;LOẠI TÀI NGUYÊN&lt;/font&gt;" style="ellipse;whiteSpace=wrap;html=1;" parent="1" vertex="1">
          <mxGeometry x="3560" y="250" width="390" height="150" as="geometry" />
        </mxCell>
        <mxCell id="KAbs0ScCrpqB8FkGLiWp-69" value="" style="endArrow=none;html=1;rounded=0;exitX=0;exitY=1;exitDx=0;exitDy=0;entryX=1;entryY=0;entryDx=0;entryDy=0;" parent="1" source="KAbs0ScCrpqB8FkGLiWp-66" target="KAbs0ScCrpqB8FkGLiWp-65" edge="1">
          <mxGeometry width="50" height="50" relative="1" as="geometry">
            <mxPoint x="2361" y="116" as="sourcePoint" />
            <mxPoint x="2469" y="228" as="targetPoint" />
          </mxGeometry>
        </mxCell>
        <mxCell id="KAbs0ScCrpqB8FkGLiWp-70" value="" style="endArrow=none;html=1;rounded=0;exitX=0;exitY=1;exitDx=0;exitDy=0;entryX=1;entryY=0.25;entryDx=0;entryDy=0;" parent="1" source="KAbs0ScCrpqB8FkGLiWp-67" target="KAbs0ScCrpqB8FkGLiWp-65" edge="1">
          <mxGeometry width="50" height="50" relative="1" as="geometry">
            <mxPoint x="2371" y="126" as="sourcePoint" />
            <mxPoint x="2479" y="238" as="targetPoint" />
          </mxGeometry>
        </mxCell>
        <mxCell id="KAbs0ScCrpqB8FkGLiWp-71" value="" style="endArrow=none;html=1;rounded=0;exitX=0;exitY=0.5;exitDx=0;exitDy=0;entryX=1;entryY=0.5;entryDx=0;entryDy=0;" parent="1" source="KAbs0ScCrpqB8FkGLiWp-68" target="KAbs0ScCrpqB8FkGLiWp-65" edge="1">
          <mxGeometry width="50" height="50" relative="1" as="geometry">
            <mxPoint x="2381" y="136" as="sourcePoint" />
            <mxPoint x="2489" y="248" as="targetPoint" />
          </mxGeometry>
        </mxCell>
        <mxCell id="KAbs0ScCrpqB8FkGLiWp-72" value="&lt;span style=&quot;font-size: 48px;&quot;&gt;SPRINT&lt;/span&gt;" style="rounded=0;whiteSpace=wrap;html=1;" parent="1" vertex="1">
          <mxGeometry x="2920" y="600" width="370" height="171" as="geometry" />
        </mxCell>
        <mxCell id="KAbs0ScCrpqB8FkGLiWp-73" value="&lt;font style=&quot;font-size: 36px;&quot;&gt;MÃ SPRINT&lt;/font&gt;" style="ellipse;whiteSpace=wrap;html=1;fontStyle=4" parent="1" vertex="1">
          <mxGeometry x="3590" y="520" width="380" height="152" as="geometry" />
        </mxCell>
        <mxCell id="KAbs0ScCrpqB8FkGLiWp-74" value="&lt;font style=&quot;font-size: 36px;&quot;&gt;NỘI DUNG&lt;/font&gt;" style="ellipse;whiteSpace=wrap;html=1;" parent="1" vertex="1">
          <mxGeometry x="3680" y="762" width="380" height="148" as="geometry" />
        </mxCell>
        <mxCell id="KAbs0ScCrpqB8FkGLiWp-75" value="" style="endArrow=none;html=1;rounded=0;exitX=0;exitY=1;exitDx=0;exitDy=0;entryX=1;entryY=0.25;entryDx=0;entryDy=0;" parent="1" source="KAbs0ScCrpqB8FkGLiWp-73" target="KAbs0ScCrpqB8FkGLiWp-72" edge="1">
          <mxGeometry width="50" height="50" relative="1" as="geometry">
            <mxPoint x="3175" y="669" as="sourcePoint" />
            <mxPoint x="3283" y="781" as="targetPoint" />
          </mxGeometry>
        </mxCell>
        <mxCell id="KAbs0ScCrpqB8FkGLiWp-76" value="" style="endArrow=none;html=1;rounded=0;exitX=0;exitY=0.5;exitDx=0;exitDy=0;entryX=1;entryY=0.5;entryDx=0;entryDy=0;" parent="1" source="KAbs0ScCrpqB8FkGLiWp-74" target="KAbs0ScCrpqB8FkGLiWp-72" edge="1">
          <mxGeometry width="50" height="50" relative="1" as="geometry">
            <mxPoint x="3185" y="679" as="sourcePoint" />
            <mxPoint x="3293" y="791" as="targetPoint" />
          </mxGeometry>
        </mxCell>
        <mxCell id="KAbs0ScCrpqB8FkGLiWp-77" value="&lt;font style=&quot;font-size: 36px;&quot;&gt;NỘI DUNG XIN NGHỈ&lt;/font&gt;" style="ellipse;whiteSpace=wrap;html=1;" parent="1" vertex="1">
          <mxGeometry x="-730" y="994" width="340" height="175" as="geometry" />
        </mxCell>
        <mxCell id="KAbs0ScCrpqB8FkGLiWp-78" value="" style="endArrow=none;html=1;rounded=0;exitX=0;exitY=0.5;exitDx=0;exitDy=0;entryX=1;entryY=0.5;entryDx=0;entryDy=0;" parent="1" source="KAbs0ScCrpqB8FkGLiWp-84" target="KAbs0ScCrpqB8FkGLiWp-77" edge="1">
          <mxGeometry width="50" height="50" relative="1" as="geometry">
            <mxPoint x="-166" y="1076.5" as="sourcePoint" />
            <mxPoint x="110" y="1130" as="targetPoint" />
          </mxGeometry>
        </mxCell>
        <mxCell id="KAbs0ScCrpqB8FkGLiWp-79" value="" style="endArrow=none;html=1;rounded=0;exitX=0;exitY=0.25;exitDx=0;exitDy=0;entryX=1;entryY=0.5;entryDx=0;entryDy=0;" parent="1" source="KAbs0ScCrpqB8FkGLiWp-84" target="KAbs0ScCrpqB8FkGLiWp-87" edge="1">
          <mxGeometry width="50" height="50" relative="1" as="geometry">
            <mxPoint x="-166" y="1040.25" as="sourcePoint" />
            <mxPoint x="-380" y="810" as="targetPoint" />
          </mxGeometry>
        </mxCell>
        <mxCell id="KAbs0ScCrpqB8FkGLiWp-80" value="" style="group" parent="1" vertex="1" connectable="0">
          <mxGeometry x="1196" y="1530" width="350" height="180" as="geometry" />
        </mxCell>
        <mxCell id="KAbs0ScCrpqB8FkGLiWp-81" value="&lt;font style=&quot;font-size: 36px;&quot;&gt;TÊN NHIỆM VỤ&lt;/font&gt;" style="ellipse;whiteSpace=wrap;html=1;rounded=0;strokeColor=default;fontFamily=Helvetica;fontSize=12;fontColor=default;fillColor=default;" parent="KAbs0ScCrpqB8FkGLiWp-80" vertex="1">
          <mxGeometry width="350" height="180" as="geometry" />
        </mxCell>
        <mxCell id="KAbs0ScCrpqB8FkGLiWp-82" value="" style="endArrow=none;dashed=1;html=1;rounded=0;fontFamily=Helvetica;fontSize=12;fontColor=default;" parent="KAbs0ScCrpqB8FkGLiWp-80" edge="1">
          <mxGeometry width="50" height="50" relative="1" as="geometry">
            <mxPoint x="326.6666666666667" y="127.28571428571429" as="sourcePoint" />
            <mxPoint x="23.333333333333336" y="127.65857142857139" as="targetPoint" />
          </mxGeometry>
        </mxCell>
        <mxCell id="KAbs0ScCrpqB8FkGLiWp-83" value="" style="group" parent="1" vertex="1" connectable="0">
          <mxGeometry x="70" y="910" width="200" height="110" as="geometry" />
        </mxCell>
        <mxCell id="KAbs0ScCrpqB8FkGLiWp-84" value="" style="rounded=0;whiteSpace=wrap;html=1;movable=1;resizable=1;rotatable=1;deletable=1;editable=1;locked=0;connectable=1;" parent="KAbs0ScCrpqB8FkGLiWp-83" vertex="1">
          <mxGeometry x="-220" y="-70" width="420" height="180" as="geometry" />
        </mxCell>
        <mxCell id="KAbs0ScCrpqB8FkGLiWp-85" value="&lt;font style=&quot;font-size: 48px;&quot;&gt;ĐIỂM DANH NGÀY NGHỈ&lt;/font&gt;" style="rounded=0;whiteSpace=wrap;html=1;movable=1;resizable=1;rotatable=1;deletable=1;editable=1;locked=0;connectable=1;" parent="KAbs0ScCrpqB8FkGLiWp-83" vertex="1">
          <mxGeometry x="-210" y="-60" width="400" height="160" as="geometry" />
        </mxCell>
        <mxCell id="KAbs0ScCrpqB8FkGLiWp-86" value="" style="group" parent="1" vertex="1" connectable="0">
          <mxGeometry x="-730" y="700" width="341" height="170" as="geometry" />
        </mxCell>
        <mxCell id="KAbs0ScCrpqB8FkGLiWp-87" value="&lt;span style=&quot;font-size: 36px;&quot;&gt;NGÀY&lt;/span&gt;" style="ellipse;whiteSpace=wrap;html=1;" parent="KAbs0ScCrpqB8FkGLiWp-86" vertex="1">
          <mxGeometry width="341" height="170" as="geometry" />
        </mxCell>
        <mxCell id="KAbs0ScCrpqB8FkGLiWp-88" value="" style="endArrow=none;dashed=1;html=1;rounded=0;" parent="KAbs0ScCrpqB8FkGLiWp-86" edge="1">
          <mxGeometry width="50" height="50" relative="1" as="geometry">
            <mxPoint x="93" y="104" as="sourcePoint" />
            <mxPoint x="273" y="104" as="targetPoint" />
          </mxGeometry>
        </mxCell>
        <mxCell id="KAbs0ScCrpqB8FkGLiWp-89" value="&lt;font style=&quot;font-size: 36px;&quot;&gt;TIẾN ĐỘ (%)&lt;/font&gt;" style="ellipse;whiteSpace=wrap;html=1;" parent="1" vertex="1">
          <mxGeometry x="2710" y="1320" width="278" height="160" as="geometry" />
        </mxCell>
        <mxCell id="KAbs0ScCrpqB8FkGLiWp-90" value="" style="endArrow=none;html=1;rounded=0;entryX=1;entryY=1;entryDx=0;entryDy=0;exitX=0;exitY=0;exitDx=0;exitDy=0;" parent="1" source="KAbs0ScCrpqB8FkGLiWp-89" target="KAbs0ScCrpqB8FkGLiWp-56" edge="1">
          <mxGeometry width="50" height="50" relative="1" as="geometry">
            <mxPoint x="2512" y="1774" as="sourcePoint" />
            <mxPoint x="2424" y="1291" as="targetPoint" />
          </mxGeometry>
        </mxCell>
        <mxCell id="KAbs0ScCrpqB8FkGLiWp-91" value="&lt;font style=&quot;font-size: 36px;&quot;&gt;NGÀY BĐ&lt;/font&gt;" style="ellipse;whiteSpace=wrap;html=1;" parent="1" vertex="1">
          <mxGeometry x="3580" y="1050" width="380" height="148" as="geometry" />
        </mxCell>
        <mxCell id="KAbs0ScCrpqB8FkGLiWp-92" value="&lt;font style=&quot;font-size: 36px;&quot;&gt;NGÀY KT&lt;/font&gt;" style="ellipse;whiteSpace=wrap;html=1;" parent="1" vertex="1">
          <mxGeometry x="3130" y="1060" width="380" height="148" as="geometry" />
        </mxCell>
        <mxCell id="KAbs0ScCrpqB8FkGLiWp-93" value="" style="endArrow=none;html=1;rounded=0;exitX=0.5;exitY=0;exitDx=0;exitDy=0;entryX=0.75;entryY=1;entryDx=0;entryDy=0;" parent="1" source="KAbs0ScCrpqB8FkGLiWp-92" target="KAbs0ScCrpqB8FkGLiWp-72" edge="1">
          <mxGeometry width="50" height="50" relative="1" as="geometry">
            <mxPoint x="3650" y="874" as="sourcePoint" />
            <mxPoint x="3300" y="696" as="targetPoint" />
          </mxGeometry>
        </mxCell>
        <mxCell id="KAbs0ScCrpqB8FkGLiWp-94" value="" style="endArrow=none;html=1;rounded=0;exitX=0;exitY=0;exitDx=0;exitDy=0;entryX=1;entryY=1;entryDx=0;entryDy=0;" parent="1" source="KAbs0ScCrpqB8FkGLiWp-91" target="KAbs0ScCrpqB8FkGLiWp-72" edge="1">
          <mxGeometry width="50" height="50" relative="1" as="geometry">
            <mxPoint x="3660" y="884" as="sourcePoint" />
            <mxPoint x="3310" y="706" as="targetPoint" />
          </mxGeometry>
        </mxCell>
        <mxCell id="KAbs0ScCrpqB8FkGLiWp-95" value="" style="group" parent="1" vertex="1" connectable="0">
          <mxGeometry x="2525" y="828" width="370" height="176" as="geometry" />
        </mxCell>
        <mxCell id="KAbs0ScCrpqB8FkGLiWp-96" value="&lt;font style=&quot;font-size: 36px;&quot;&gt;TÊN NHÓM&lt;/font&gt;" style="ellipse;whiteSpace=wrap;html=1;" parent="KAbs0ScCrpqB8FkGLiWp-95" vertex="1">
          <mxGeometry width="370" height="176" as="geometry" />
        </mxCell>
        <mxCell id="KAbs0ScCrpqB8FkGLiWp-97" value="" style="endArrow=none;dashed=1;html=1;rounded=0;" parent="KAbs0ScCrpqB8FkGLiWp-95" edge="1">
          <mxGeometry width="50" height="50" relative="1" as="geometry">
            <mxPoint x="75" y="122" as="sourcePoint" />
            <mxPoint x="295" y="122" as="targetPoint" />
          </mxGeometry>
        </mxCell>
      </root>
    </mxGraphModel>
  </diagram>
</mxfile>
>>>>>>> 1a00dd61a6d261cb328eaba5c332abfb2c13594f
